{
    "accessors": [
        {
            "bufferView": 0,
            "componentType": 5126,
            "count": 3552,
            "type": "VEC3",
            "max": [
                0.02724410407245159,
                0.14654919505119325,
                0.049561675637960437
            ],
            "min": [
                -0.02724410407245159,
                -0.058885976672172549,
                -0.03469275310635567
            ]
        },
        {
            "bufferView": 1,
            "componentType": 5126,
            "count": 3552,
            "type": "VEC3"
        },
        {
            "bufferView": 2,
            "componentType": 5126,
            "count": 3552,
            "type": "VEC4"
        },
        {
            "bufferView": 3,
            "componentType": 5126,
            "count": 3552,
            "type": "VEC2"
        },
        {
            "bufferView": 4,
            "componentType": 5125,
            "count": 5280,
            "type": "SCALAR",
            "max": [
                3551.0
            ],
            "min": [
                0.0
            ]
        },
        {
            "bufferView": 5,
            "componentType": 5126,
            "count": 948,
            "type": "VEC3",
            "max": [
                0.008179744705557824,
                0.10009061545133591,
                0.016883788630366327
            ],
            "min": [
                -0.007654501590877771,
                -0.07819706946611405,
                -0.053031522780656818
            ]
        },
        {
            "bufferView": 6,
            "componentType": 5126,
            "count": 948,
            "type": "VEC3"
        },
        {
            "bufferView": 7,
            "componentType": 5126,
            "count": 948,
            "type": "VEC2"
        },
        {
            "bufferView": 8,
            "componentType": 5125,
            "count": 2832,
            "type": "SCALAR",
            "max": [
                947.0
            ],
            "min": [
                0.0
            ]
        },
        {
            "bufferView": 9,
            "componentType": 5126,
            "count": 224,
            "type": "VEC3",
            "max": [
                0.0249630119651556,
                0.05922196805477142,
                0.046431493014097217
            ],
            "min": [
                -0.0249630119651556,
                -0.05114159360527992,
                -0.024024607613682748
            ]
        },
        {
            "bufferView": 10,
            "componentType": 5126,
            "count": 224,
            "type": "VEC3"
        },
        {
            "bufferView": 11,
            "componentType": 5126,
            "count": 224,
            "type": "VEC2"
        },
        {
            "bufferView": 12,
            "componentType": 5125,
            "count": 372,
            "type": "SCALAR",
            "max": [
                223.0
            ],
            "min": [
                0.0
            ]
        }
    ],
    "bufferViews": [
        {
            "buffer": 0,
            "byteOffset": 0,
            "byteLength": 42624,
            "target": 34962
        },
        {
            "buffer": 0,
            "byteOffset": 42624,
            "byteLength": 42624,
            "target": 34962
        },
        {
            "buffer": 0,
            "byteOffset": 85248,
            "byteLength": 56832,
            "target": 34962
        },
        {
            "buffer": 0,
            "byteOffset": 142080,
            "byteLength": 28416,
            "target": 34962
        },
        {
            "buffer": 0,
            "byteOffset": 170496,
            "byteLength": 21120,
            "target": 34963
        },
        {
            "buffer": 0,
            "byteOffset": 191616,
            "byteLength": 11376,
            "target": 34962
        },
        {
            "buffer": 0,
            "byteOffset": 202992,
            "byteLength": 11376,
            "target": 34962
        },
        {
            "buffer": 0,
            "byteOffset": 214368,
            "byteLength": 7584,
            "target": 34962
        },
        {
            "buffer": 0,
            "byteOffset": 221952,
            "byteLength": 11328,
            "target": 34963
        },
        {
            "buffer": 0,
            "byteOffset": 233280,
            "byteLength": 2688,
            "target": 34962
        },
        {
            "buffer": 0,
            "byteOffset": 235968,
            "byteLength": 2688,
            "target": 34962
        },
        {
            "buffer": 0,
            "byteOffset": 238656,
            "byteLength": 1792,
            "target": 34962
        },
        {
            "buffer": 0,
            "byteOffset": 240448,
            "byteLength": 1488,
            "target": 34963
        }
    ],
    "buffers": [
        {
            "byteLength": 241936,
            "uri": "cocktail_binary.bin"
        }
    ],
    "materials": [
        {
            "pbrMetallicRoughness": {
                "baseColorFactor": [
                    0.012983030639588833,
                    0.2704978585243225,
                    0.51491779088974,
                    0.23000000417232514
                ],
                "metallicFactor": 0.0,
                "roughnessFactor": 0.24253562092781068
            },
            "alphaMode": "BLEND",
            "name": "Bottle",
            "doubleSided": true,
            "extensions": {
                "KHR_materials_ior": {
                    "ior": 2.490000009536743
                },
                "KHR_materials_dispersion": {
                    "dispersion": 0.7599999904632568
                }
            }
        },
        {
            "pbrMetallicRoughness": {
                "baseColorFactor": [
                    0.8796223402023315,
                    0.0015176349552348257,
                    0.9130986928939819,
                    1.0
                ],
                "metallicFactor": 0.0,
                "roughnessFactor": 0.30000001192092898
            },
            "name": "Fabric",
            "doubleSided": true
        },
        {
            "pbrMetallicRoughness": {
                "baseColorFactor": [
                    0.46000000834465029,
                    1.0,
                    0.5845996141433716,
                    0.5400000214576721
                ],
                "metallicFactor": 0.0,
                "roughnessFactor": 0.24253562092781068
            },
            "alphaMode": "BLEND",
            "name": "Liquid",
            "doubleSided": true,
            "extensions": {
                "KHR_materials_transmission": {
                    "transmissionFactor": 0.4600000083446502
                },
                "KHR_materials_volume": {
                    "thicknessFactor": 0
                }
            }
        }
    ],
    "meshes": [
        {
            "name": "Bottle",
            "primitives": [
                {
                    "attributes": {
                        "POSITION": 0,
                        "NORMAL": 1,
                        "TANGENT": 2,
                        "TEXCOORD_0": 3
                    },
                    "indices": 4,
                    "material": 0
                }
            ]
        },
        {
            "name": "Fabric",
            "primitives": [
                {
                    "attributes": {
                        "NORMAL": 6,
                        "POSITION": 5,
                        "TEXCOORD_0": 7
                    },
                    "indices": 8,
                    "material": 1
                }
            ]
        },
        {
            "name": "Liquid",
            "primitives": [
                {
                    "attributes": {
                        "POSITION": 9,
                        "NORMAL": 10,
                        "TEXCOORD_0": 11
                    },
                    "indices": 12,
                    "material": 2
                }
            ]
        }
    ],
    "nodes": [
        {
            "name": "working_cam_n3d"
        },
        {
            "children": [
                2
            ],
            "translation": [
                0.0,
                0.10111970454454422,
                0.0026842474471777679
            ],
            "name": "Molotov_Cocktail"
        },
        {
            "children": [
                3,
                4
            ],
            "translation": [
                0.0,
                -0.04223373159766197,
                -0.0007448936812579632
            ],
            "mesh": 0,
            "name": "Bottle"
        },
        {
            "translation": [
                0.0,
                0.04792585223913193,
                -0.0004088573914486915
            ],
            "mesh": 1,
            "name": "Fabric"
        },
        {
            "translation": [
                0.0,
                -0.0023978855460882189,
                0.0003665944386739284
            ],
            "mesh": 2,
            "name": "Liquid"
        }
    ],
    "scenes": [
        {
            "nodes": [
                1
            ],
            "name": "scene"
        }
    ],
    "scene": 0,
    "extensionsUsed": [
        "KHR_materials_ior",
        "KHR_materials_dispersion",
        "KHR_materials_volume",
        "KHR_materials_transmission"
    ]
}
