<?xml version="1.0" encoding="UTF-8"?><svg id="Calque_1" xmlns="http://www.w3.org/2000/svg" viewBox="0 0 3953.22 1990.91"><defs><style>.cls-1{fill:none;}.cls-2{fill:#7a7a7a;}</style></defs><rect class="cls-1" width="3953.22" height="1990.91"/><polygon class="cls-2" points="279.32 200.37 248.29 200.37 232.77 227.24 248.29 254.12 279.32 254.12 294.84 227.24 279.32 200.37"/><polygon class="cls-2" points="337.51 233.96 306.48 233.96 290.96 260.84 306.48 287.72 337.51 287.72 353.03 260.84 337.51 233.96"/><polygon class="cls-2" points="395.7 200.37 364.67 200.37 349.15 227.24 364.67 254.12 395.7 254.12 411.22 227.24 395.7 200.37"/><polygon class="cls-2" points="395.7 267.56 364.67 267.56 349.15 294.43 364.67 321.31 395.7 321.31 411.22 294.43 395.7 267.56"/><polygon class="cls-2" points="453.89 233.96 422.85 233.96 407.34 260.84 422.85 287.72 453.89 287.72 469.41 260.84 453.89 233.96"/><polygon class="cls-2" points="744.83 133.18 713.8 133.18 698.28 160.05 713.8 186.93 744.83 186.93 760.35 160.05 744.83 133.18"/><polygon class="cls-2" points="512.08 200.37 481.04 200.37 465.53 227.24 481.04 254.12 512.08 254.12 527.59 227.24 512.08 200.37"/><polygon class="cls-2" points="453.89 301.15 422.85 301.15 407.34 328.03 422.85 354.91 453.89 354.91 469.41 328.03 453.89 301.15"/><polygon class="cls-2" points="512.08 267.56 481.04 267.56 465.53 294.43 481.04 321.31 512.08 321.31 527.59 294.43 512.08 267.56"/><polygon class="cls-2" points="570.27 301.15 539.23 301.15 523.71 328.03 539.23 354.91 570.27 354.91 585.78 328.03 570.27 301.15"/><polygon class="cls-2" points="570.27 233.96 539.23 233.96 523.71 260.84 539.23 287.72 570.27 287.72 585.78 260.84 570.27 233.96"/><polygon class="cls-2" points="628.46 267.56 597.42 267.56 581.9 294.43 597.42 321.31 628.46 321.31 643.97 294.43 628.46 267.56"/><polygon class="cls-2" points="337.51 301.15 306.48 301.15 290.96 328.03 306.48 354.91 337.51 354.91 353.03 328.03 337.51 301.15"/><polygon class="cls-2" points="279.32 267.56 248.29 267.56 232.77 294.43 248.29 321.31 279.32 321.31 294.84 294.43 279.32 267.56"/><polygon class="cls-2" points="221.13 233.96 190.1 233.96 174.58 260.84 190.1 287.72 221.13 287.72 236.65 260.84 221.13 233.96"/><polygon class="cls-2" points="221.13 301.15 190.1 301.15 174.58 328.03 190.1 354.91 221.13 354.91 236.65 328.03 221.13 301.15"/><polygon class="cls-2" points="686.64 233.96 655.61 233.96 640.09 260.84 655.61 287.72 686.64 287.72 702.16 260.84 686.64 233.96"/><polygon class="cls-2" points="686.64 301.15 655.61 301.15 640.09 328.03 655.61 354.91 686.64 354.91 702.16 328.03 686.64 301.15"/><polygon class="cls-2" points="744.83 267.56 713.8 267.56 698.28 294.43 713.8 321.31 744.83 321.31 760.35 294.43 744.83 267.56"/><polygon class="cls-2" points="803.02 233.96 771.99 233.96 756.47 260.84 771.99 287.72 803.02 287.72 818.54 260.84 803.02 233.96"/><polygon class="cls-2" points="803.02 301.15 771.99 301.15 756.47 328.03 771.99 354.91 803.02 354.91 818.54 328.03 803.02 301.15"/><polygon class="cls-2" points="395.7 334.75 364.67 334.75 349.15 361.63 364.67 388.5 395.7 388.5 411.22 361.63 395.7 334.75"/><polygon class="cls-2" points="453.89 368.34 422.85 368.34 407.34 395.22 422.85 422.1 453.89 422.1 469.41 395.22 453.89 368.34"/><polygon class="cls-2" points="512.08 334.75 481.04 334.75 465.53 361.63 481.04 388.5 512.08 388.5 527.59 361.63 512.08 334.75"/><polygon class="cls-2" points="570.27 368.34 539.23 368.34 523.71 395.22 539.23 422.1 570.27 422.1 585.78 395.22 570.27 368.34"/><polygon class="cls-2" points="628.46 334.75 597.42 334.75 581.9 361.63 597.42 388.5 628.46 388.5 643.97 361.63 628.46 334.75"/><polygon class="cls-2" points="686.64 368.34 655.61 368.34 640.09 395.22 655.61 422.1 686.64 422.1 702.16 395.22 686.64 368.34"/><polygon class="cls-2" points="744.83 334.75 713.8 334.75 698.28 361.63 713.8 388.5 744.83 388.5 760.35 361.63 744.83 334.75"/><polygon class="cls-2" points="803.02 368.34 771.99 368.34 756.47 395.22 771.99 422.1 803.02 422.1 818.54 395.22 803.02 368.34"/><polygon class="cls-2" points="395.7 469.13 364.67 469.13 349.15 496.01 364.67 522.88 395.7 522.88 411.22 496.01 395.7 469.13"/><polygon class="cls-2" points="395.7 536.32 364.67 536.32 349.15 563.2 364.67 590.07 395.7 590.07 411.22 563.2 395.7 536.32"/><polygon class="cls-2" points="453.89 502.73 422.85 502.73 407.34 529.6 422.85 556.48 453.89 556.48 469.41 529.6 453.89 502.73"/><polygon class="cls-2" points="395.7 401.94 364.67 401.94 349.15 428.82 364.67 455.69 395.7 455.69 411.22 428.82 395.7 401.94"/><polygon class="cls-2" points="453.89 435.54 422.85 435.54 407.34 462.41 422.85 489.29 453.89 489.29 469.41 462.41 453.89 435.54"/><polygon class="cls-2" points="512.08 401.94 481.04 401.94 465.53 428.82 481.04 455.69 512.08 455.69 527.59 428.82 512.08 401.94"/><polygon class="cls-2" points="628.46 401.94 597.42 401.94 581.9 428.82 597.42 455.69 628.46 455.69 643.97 428.82 628.46 401.94"/><polygon class="cls-2" points="744.83 401.94 713.8 401.94 698.28 428.82 713.8 455.69 744.83 455.69 760.35 428.82 744.83 401.94"/><polygon class="cls-2" points="512.08 469.13 481.04 469.13 465.53 496.01 481.04 522.88 512.08 522.88 527.59 496.01 512.08 469.13"/><polygon class="cls-2" points="570.27 435.54 539.23 435.54 523.71 462.41 539.23 489.29 570.27 489.29 585.78 462.41 570.27 435.54"/><polygon class="cls-2" points="453.89 569.92 422.85 569.92 407.34 596.79 422.85 623.67 453.89 623.67 469.41 596.79 453.89 569.92"/><polygon class="cls-2" points="512.08 536.32 481.04 536.32 465.53 563.2 481.04 590.07 512.08 590.07 527.59 563.2 512.08 536.32"/><polygon class="cls-2" points="570.27 569.92 539.23 569.92 523.71 596.79 539.23 623.67 570.27 623.67 585.78 596.79 570.27 569.92"/><polygon class="cls-2" points="570.27 502.73 539.23 502.73 523.71 529.6 539.23 556.48 570.27 556.48 585.78 529.6 570.27 502.73"/><polygon class="cls-2" points="628.46 469.13 597.42 469.13 581.9 496.01 597.42 522.88 628.46 522.88 643.97 496.01 628.46 469.13"/><polygon class="cls-2" points="628.46 536.32 597.42 536.32 581.9 563.2 597.42 590.07 628.46 590.07 643.97 563.2 628.46 536.32"/><polygon class="cls-2" points="337.51 569.92 306.48 569.92 290.96 596.79 306.48 623.67 337.51 623.67 353.03 596.79 337.51 569.92"/><polygon class="cls-2" points="686.64 502.73 655.61 502.73 640.09 529.6 655.61 556.48 686.64 556.48 702.16 529.6 686.64 502.73"/><polygon class="cls-2" points="686.64 569.92 655.61 569.92 640.09 596.79 655.61 623.67 686.64 623.67 702.16 596.79 686.64 569.92"/><polygon class="cls-2" points="744.83 536.32 713.8 536.32 698.28 563.2 713.8 590.07 744.83 590.07 760.35 563.2 744.83 536.32"/><polygon class="cls-2" points="803.02 502.73 771.99 502.73 756.47 529.6 771.99 556.48 803.02 556.48 818.54 529.6 803.02 502.73"/><polygon class="cls-2" points="686.64 435.54 655.61 435.54 640.09 462.41 655.61 489.29 686.64 489.29 702.16 462.41 686.64 435.54"/><polygon class="cls-2" points="744.83 469.13 713.8 469.13 698.28 496.01 713.8 522.88 744.83 522.88 760.35 496.01 744.83 469.13"/><polygon class="cls-2" points="803.02 569.92 771.99 569.92 756.47 596.79 771.99 623.67 803.02 623.67 818.54 596.79 803.02 569.92"/><polygon class="cls-2" points="337.51 637.11 306.48 637.11 290.96 663.98 306.48 690.86 337.51 690.86 353.03 663.98 337.51 637.11"/><polygon class="cls-2" points="395.7 603.51 364.67 603.51 349.15 630.39 364.67 657.26 395.7 657.26 411.22 630.39 395.7 603.51"/><polygon class="cls-2" points="395.7 670.7 364.67 670.7 349.15 697.58 364.67 724.46 395.7 724.46 411.22 697.58 395.7 670.7"/><polygon class="cls-2" points="453.89 637.11 422.85 637.11 407.34 663.98 422.85 690.86 453.89 690.86 469.41 663.98 453.89 637.11"/><polygon class="cls-2" points="512.08 603.51 481.04 603.51 465.53 630.39 481.04 657.26 512.08 657.26 527.59 630.39 512.08 603.51"/><polygon class="cls-2" points="453.89 704.3 422.85 704.3 407.34 731.17 422.85 758.05 453.89 758.05 469.41 731.17 453.89 704.3"/><polygon class="cls-2" points="512.08 670.7 481.04 670.7 465.53 697.58 481.04 724.46 512.08 724.46 527.59 697.58 512.08 670.7"/><polygon class="cls-2" points="570.27 704.3 539.23 704.3 523.71 731.17 539.23 758.05 570.27 758.05 585.78 731.17 570.27 704.3"/><polygon class="cls-2" points="570.27 637.11 539.23 637.11 523.71 663.98 539.23 690.86 570.27 690.86 585.78 663.98 570.27 637.11"/><polygon class="cls-2" points="628.46 603.51 597.42 603.51 581.9 630.39 597.42 657.26 628.46 657.26 643.97 630.39 628.46 603.51"/><polygon class="cls-2" points="628.46 670.7 597.42 670.7 581.9 697.58 597.42 724.46 628.46 724.46 643.97 697.58 628.46 670.7"/><polygon class="cls-2" points="337.51 704.3 306.48 704.3 290.96 731.17 306.48 758.05 337.51 758.05 353.03 731.17 337.51 704.3"/><polygon class="cls-2" points="686.64 637.11 655.61 637.11 640.09 663.98 655.61 690.86 686.64 690.86 702.16 663.98 686.64 637.11"/><polygon class="cls-2" points="686.64 704.3 655.61 704.3 640.09 731.17 655.61 758.05 686.64 758.05 702.16 731.17 686.64 704.3"/><polygon class="cls-2" points="744.83 670.7 713.8 670.7 698.28 697.58 713.8 724.46 744.83 724.46 760.35 697.58 744.83 670.7"/><polygon class="cls-2" points="803.02 637.11 771.99 637.11 756.47 663.98 771.99 690.86 803.02 690.86 818.54 663.98 803.02 637.11"/><polygon class="cls-2" points="744.83 603.51 713.8 603.51 698.28 630.39 713.8 657.26 744.83 657.26 760.35 630.39 744.83 603.51"/><polygon class="cls-2" points="803.02 435.54 771.99 435.54 756.47 462.41 771.99 489.29 803.02 489.29 818.54 462.41 803.02 435.54"/><polygon class="cls-2" points="162.94 267.56 131.91 267.56 116.39 294.43 131.91 321.31 162.94 321.31 178.46 294.43 162.94 267.56"/><polygon class="cls-2" points="162.94 334.75 131.91 334.75 116.39 361.63 131.91 388.5 162.94 388.5 178.46 361.63 162.94 334.75"/><polygon class="cls-2" points="104.75 368.34 73.72 368.34 58.2 395.22 73.72 422.1 104.75 422.1 120.27 395.22 104.75 368.34"/><polygon class="cls-2" points="861.21 133.18 830.18 133.18 814.66 160.05 830.18 186.93 861.21 186.93 876.73 160.05 861.21 133.18"/><polygon class="cls-2" points="861.21 267.56 830.18 267.56 814.66 294.43 830.18 321.31 861.21 321.31 876.73 294.43 861.21 267.56"/><polygon class="cls-2" points="861.21 401.94 830.18 401.94 814.66 428.82 830.18 455.69 861.21 455.69 876.73 428.82 861.21 401.94"/><polygon class="cls-2" points="861.21 536.32 830.18 536.32 814.66 563.2 830.18 590.07 861.21 590.07 876.73 563.2 861.21 536.32"/><polygon class="cls-2" points="861.21 469.13 830.18 469.13 814.66 496.01 830.18 522.88 861.21 522.88 876.73 496.01 861.21 469.13"/><polygon class="cls-2" points="861.21 603.51 830.18 603.51 814.66 630.39 830.18 657.26 861.21 657.26 876.73 630.39 861.21 603.51"/><polygon class="cls-2" points="1210.31 65.99 1179.27 65.99 1163.76 92.86 1179.27 119.74 1210.31 119.74 1225.82 92.86 1210.31 65.99"/><polygon class="cls-2" points="1384.87 99.58 1353.84 99.58 1338.32 126.46 1353.84 153.33 1384.87 153.33 1400.39 126.46 1384.87 99.58"/><polygon class="cls-2" points="1443.06 65.99 1412.03 65.99 1396.51 92.86 1412.03 119.74 1443.06 119.74 1458.58 92.86 1443.06 65.99"/><polygon class="cls-2" points="1152.12 99.58 1121.08 99.58 1105.57 126.46 1121.08 153.33 1152.12 153.33 1167.64 126.46 1152.12 99.58"/><polygon class="cls-2" points="1093.93 65.99 1062.9 65.99 1047.38 92.86 1062.9 119.74 1093.93 119.74 1109.45 92.86 1093.93 65.99"/><polygon class="cls-2" points="1501.25 99.58 1470.22 99.58 1454.7 126.46 1470.22 153.33 1501.25 153.33 1516.77 126.46 1501.25 99.58"/><polygon class="cls-2" points="1559.44 65.99 1528.41 65.99 1512.89 92.86 1528.41 119.74 1559.44 119.74 1574.96 92.86 1559.44 65.99"/><polygon class="cls-2" points="1617.63 99.58 1586.6 99.58 1571.08 126.46 1586.6 153.33 1617.63 153.33 1633.15 126.46 1617.63 99.58"/><polygon class="cls-2" points="1093.93 200.37 1062.9 200.37 1047.38 227.24 1062.9 254.12 1093.93 254.12 1109.45 227.24 1093.93 200.37"/><polygon class="cls-2" points="1152.12 233.96 1121.08 233.96 1105.57 260.84 1121.08 287.72 1152.12 287.72 1167.64 260.84 1152.12 233.96"/><polygon class="cls-2" points="1268.5 233.96 1237.46 233.96 1221.95 260.84 1237.46 287.72 1268.5 287.72 1284.01 260.84 1268.5 233.96"/><polygon class="cls-2" points="1268.5 166.77 1237.46 166.77 1221.95 193.65 1237.46 220.52 1268.5 220.52 1284.01 193.65 1268.5 166.77"/><polygon class="cls-2" points="1326.69 133.18 1295.65 133.18 1280.13 160.05 1295.65 186.93 1326.69 186.93 1342.2 160.05 1326.69 133.18"/><polygon class="cls-2" points="1443.06 133.18 1412.03 133.18 1396.51 160.05 1412.03 186.93 1443.06 186.93 1458.58 160.05 1443.06 133.18"/><polygon class="cls-2" points="1559.44 133.18 1528.41 133.18 1512.89 160.05 1528.41 186.93 1559.44 186.93 1574.96 160.05 1559.44 133.18"/><polygon class="cls-2" points="1326.69 200.37 1295.65 200.37 1280.13 227.24 1295.65 254.12 1326.69 254.12 1342.2 227.24 1326.69 200.37"/><polygon class="cls-2" points="1384.87 166.77 1353.84 166.77 1338.32 193.65 1353.84 220.52 1384.87 220.52 1400.39 193.65 1384.87 166.77"/><polygon class="cls-2" points="1268.5 301.15 1237.46 301.15 1221.95 328.03 1237.46 354.91 1268.5 354.91 1284.01 328.03 1268.5 301.15"/><polygon class="cls-2" points="1326.69 267.56 1295.65 267.56 1280.13 294.43 1295.65 321.31 1326.69 321.31 1342.2 294.43 1326.69 267.56"/><polygon class="cls-2" points="1384.87 233.96 1353.84 233.96 1338.32 260.84 1353.84 287.72 1384.87 287.72 1400.39 260.84 1384.87 233.96"/><polygon class="cls-2" points="1443.06 200.37 1412.03 200.37 1396.51 227.24 1412.03 254.12 1443.06 254.12 1458.58 227.24 1443.06 200.37"/><polygon class="cls-2" points="1093.93 267.56 1062.9 267.56 1047.38 294.43 1062.9 321.31 1093.93 321.31 1109.45 294.43 1093.93 267.56"/><polygon class="cls-2" points="1035.74 233.96 1004.71 233.96 989.19 260.84 1004.71 287.72 1035.74 287.72 1051.26 260.84 1035.74 233.96"/><polygon class="cls-2" points="1559.44 267.56 1528.41 267.56 1512.89 294.43 1528.41 321.31 1559.44 321.31 1574.96 294.43 1559.44 267.56"/><polygon class="cls-2" points="1501.25 166.77 1470.22 166.77 1454.7 193.65 1470.22 220.52 1501.25 220.52 1516.77 193.65 1501.25 166.77"/><polygon class="cls-2" points="1035.74 368.34 1004.71 368.34 989.19 395.22 1004.71 422.1 1035.74 422.1 1051.26 395.22 1035.74 368.34"/><polygon class="cls-2" points="1035.74 435.54 1004.71 435.54 989.19 462.41 1004.71 489.29 1035.74 489.29 1051.26 462.41 1035.74 435.54"/><polygon class="cls-2" points="1093.93 401.94 1062.9 401.94 1047.38 428.82 1062.9 455.69 1093.93 455.69 1109.45 428.82 1093.93 401.94"/><polygon class="cls-2" points="1093.93 469.13 1062.9 469.13 1047.38 496.01 1062.9 522.88 1093.93 522.88 1109.45 496.01 1093.93 469.13"/><polygon class="cls-2" points="1617.63 569.92 1586.6 569.92 1571.08 596.79 1586.6 623.67 1617.63 623.67 1633.15 596.79 1617.63 569.92"/><polygon class="cls-2" points="1617.63 637.11 1586.6 637.11 1571.08 663.98 1586.6 690.86 1617.63 690.86 1633.15 663.98 1617.63 637.11"/><polygon class="cls-2" points="1617.63 435.54 1586.6 435.54 1571.08 462.41 1586.6 489.29 1617.63 489.29 1633.15 462.41 1617.63 435.54"/><polygon class="cls-2" points="919.36 99.58 888.33 99.58 872.81 126.46 888.33 153.33 919.36 153.33 934.88 126.46 919.36 99.58"/><polygon class="cls-2" points="977.55 133.18 946.52 133.18 931 160.05 946.52 186.93 977.55 186.93 993.07 160.05 977.55 133.18"/><polygon class="cls-2" points="919.36 233.96 888.33 233.96 872.81 260.84 888.33 287.72 919.36 287.72 934.88 260.84 919.36 233.96"/><polygon class="cls-2" points="977.55 334.75 946.52 334.75 931 361.63 946.52 388.5 977.55 388.5 993.07 361.63 977.55 334.75"/><polygon class="cls-2" points="919.36 435.54 888.33 435.54 872.81 462.41 888.33 489.29 919.36 489.29 934.88 462.41 919.36 435.54"/><polygon class="cls-2" points="977.55 401.94 946.52 401.94 931 428.82 946.52 455.69 977.55 455.69 993.07 428.82 977.55 401.94"/><polygon class="cls-2" points="977.55 469.13 946.52 469.13 931 496.01 946.52 522.88 977.55 522.88 993.07 496.01 977.55 469.13"/><polygon class="cls-2" points="977.55 536.32 946.52 536.32 931 563.2 946.52 590.07 977.55 590.07 993.07 563.2 977.55 536.32"/><polygon class="cls-2" points="919.36 502.73 888.33 502.73 872.81 529.6 888.33 556.48 919.36 556.48 934.88 529.6 919.36 502.73"/><polygon class="cls-2" points="919.36 569.92 888.33 569.92 872.81 596.79 888.33 623.67 919.36 623.67 934.88 596.79 919.36 569.92"/><polygon class="cls-2" points="1675.82 334.75 1644.79 334.75 1629.27 361.63 1644.79 388.5 1675.82 388.5 1691.34 361.63 1675.82 334.75"/><polygon class="cls-2" points="1675.82 401.94 1644.79 401.94 1629.27 428.82 1644.79 455.69 1675.82 455.69 1691.34 428.82 1675.82 401.94"/><polygon class="cls-2" points="1675.82 536.32 1644.79 536.32 1629.27 563.2 1644.79 590.07 1675.82 590.07 1691.34 563.2 1675.82 536.32"/><polygon class="cls-2" points="1675.82 603.51 1644.79 603.51 1629.27 630.39 1644.79 657.26 1675.82 657.26 1691.34 630.39 1675.82 603.51"/><polygon class="cls-2" points="1966.74 99.58 1935.7 99.58 1920.19 126.46 1935.7 153.33 1966.74 153.33 1982.25 126.46 1966.74 99.58"/><polygon class="cls-2" points="1850.36 99.58 1819.32 99.58 1803.81 126.46 1819.32 153.33 1850.36 153.33 1865.88 126.46 1850.36 99.58"/><polygon class="cls-2" points="1908.55 200.37 1877.51 200.37 1862 227.24 1877.51 254.12 1908.55 254.12 1924.06 227.24 1908.55 200.37"/><polygon class="cls-2" points="1966.74 233.96 1935.7 233.96 1920.19 260.84 1935.7 287.72 1966.74 287.72 1982.25 260.84 1966.74 233.96"/><polygon class="cls-2" points="2024.93 200.37 1993.89 200.37 1978.37 227.24 1993.89 254.12 2024.93 254.12 2040.44 227.24 2024.93 200.37"/><polygon class="cls-2" points="2024.93 267.56 1993.89 267.56 1978.37 294.43 1993.89 321.31 2024.93 321.31 2040.44 294.43 2024.93 267.56"/><polygon class="cls-2" points="2257.68 133.18 2226.65 133.18 2211.13 160.05 2226.65 186.93 2257.68 186.93 2273.2 160.05 2257.68 133.18"/><polygon class="cls-2" points="2199.49 166.77 2168.46 166.77 2152.94 193.65 2168.46 220.52 2199.49 220.52 2215.01 193.65 2199.49 166.77"/><polygon class="cls-2" points="2083.11 301.15 2052.08 301.15 2036.56 328.03 2052.08 354.91 2083.11 354.91 2098.63 328.03 2083.11 301.15"/><polygon class="cls-2" points="2141.3 267.56 2110.27 267.56 2094.75 294.43 2110.27 321.31 2141.3 321.31 2156.82 294.43 2141.3 267.56"/><polygon class="cls-2" points="2199.49 301.15 2168.46 301.15 2152.94 328.03 2168.46 354.91 2199.49 354.91 2215.01 328.03 2199.49 301.15"/><polygon class="cls-2" points="2257.68 267.56 2226.65 267.56 2211.13 294.43 2226.65 321.31 2257.68 321.31 2273.2 294.43 2257.68 267.56"/><polygon class="cls-2" points="1966.74 301.15 1935.7 301.15 1920.19 328.03 1935.7 354.91 1966.74 354.91 1982.25 328.03 1966.74 301.15"/><polygon class="cls-2" points="1908.55 267.56 1877.51 267.56 1862 294.43 1877.51 321.31 1908.55 321.31 1924.06 294.43 1908.55 267.56"/><polygon class="cls-2" points="1850.36 233.96 1819.32 233.96 1803.81 260.84 1819.32 287.72 1850.36 287.72 1865.88 260.84 1850.36 233.96"/><polygon class="cls-2" points="1850.36 301.15 1819.32 301.15 1803.81 328.03 1819.32 354.91 1850.36 354.91 1865.88 328.03 1850.36 301.15"/><polygon class="cls-2" points="2315.87 233.96 2284.84 233.96 2269.32 260.84 2284.84 287.72 2315.87 287.72 2331.39 260.84 2315.87 233.96"/><polygon class="cls-2" points="2315.87 301.15 2284.84 301.15 2269.32 328.03 2284.84 354.91 2315.87 354.91 2331.39 328.03 2315.87 301.15"/><polygon class="cls-2" points="2374.06 267.56 2343.03 267.56 2327.51 294.43 2343.03 321.31 2374.06 321.31 2389.58 294.43 2374.06 267.56"/><polygon class="cls-2" points="2432.25 233.96 2401.21 233.96 2385.7 260.84 2401.21 287.72 2432.25 287.72 2447.77 260.84 2432.25 233.96"/><polygon class="cls-2" points="2374.06 200.37 2343.03 200.37 2327.51 227.24 2343.03 254.12 2374.06 254.12 2389.58 227.24 2374.06 200.37"/><polygon class="cls-2" points="2432.25 301.15 2401.21 301.15 2385.7 328.03 2401.21 354.91 2432.25 354.91 2447.77 328.03 2432.25 301.15"/><polygon class="cls-2" points="2024.93 334.75 1993.89 334.75 1978.37 361.63 1993.89 388.5 2024.93 388.5 2040.44 361.63 2024.93 334.75"/><polygon class="cls-2" points="2083.11 368.34 2052.08 368.34 2036.56 395.22 2052.08 422.1 2083.11 422.1 2098.63 395.22 2083.11 368.34"/><polygon class="cls-2" points="2141.3 334.75 2110.27 334.75 2094.75 361.63 2110.27 388.5 2141.3 388.5 2156.82 361.63 2141.3 334.75"/><polygon class="cls-2" points="2199.49 368.34 2168.46 368.34 2152.94 395.22 2168.46 422.1 2199.49 422.1 2215.01 395.22 2199.49 368.34"/><polygon class="cls-2" points="2257.68 334.75 2226.65 334.75 2211.13 361.63 2226.65 388.5 2257.68 388.5 2273.2 361.63 2257.68 334.75"/><polygon class="cls-2" points="1966.74 368.34 1935.7 368.34 1920.19 395.22 1935.7 422.1 1966.74 422.1 1982.25 395.22 1966.74 368.34"/><polygon class="cls-2" points="2315.87 368.34 2284.84 368.34 2269.32 395.22 2284.84 422.1 2315.87 422.1 2331.39 395.22 2315.87 368.34"/><polygon class="cls-2" points="2374.06 334.75 2343.03 334.75 2327.51 361.63 2343.03 388.5 2374.06 388.5 2389.58 361.63 2374.06 334.75"/><polygon class="cls-2" points="2432.25 368.34 2401.21 368.34 2385.7 395.22 2401.21 422.1 2432.25 422.1 2447.77 395.22 2432.25 368.34"/><polygon class="cls-2" points="1850.36 435.54 1819.32 435.54 1803.81 462.41 1819.32 489.29 1850.36 489.29 1865.88 462.41 1850.36 435.54"/><polygon class="cls-2" points="1908.55 469.13 1877.51 469.13 1862 496.01 1877.51 522.88 1908.55 522.88 1924.06 496.01 1908.55 469.13"/><polygon class="cls-2" points="1966.74 435.54 1935.7 435.54 1920.19 462.41 1935.7 489.29 1966.74 489.29 1982.25 462.41 1966.74 435.54"/><polygon class="cls-2" points="1966.74 502.73 1935.7 502.73 1920.19 529.6 1935.7 556.48 1966.74 556.48 1982.25 529.6 1966.74 502.73"/><polygon class="cls-2" points="2024.93 469.13 1993.89 469.13 1978.37 496.01 1993.89 522.88 2024.93 522.88 2040.44 496.01 2024.93 469.13"/><polygon class="cls-2" points="2024.93 536.32 1993.89 536.32 1978.37 563.2 1993.89 590.07 2024.93 590.07 2040.44 563.2 2024.93 536.32"/><polygon class="cls-2" points="2083.11 502.73 2052.08 502.73 2036.56 529.6 2052.08 556.48 2083.11 556.48 2098.63 529.6 2083.11 502.73"/><polygon class="cls-2" points="2024.93 401.94 1993.89 401.94 1978.37 428.82 1993.89 455.69 2024.93 455.69 2040.44 428.82 2024.93 401.94"/><polygon class="cls-2" points="2083.11 435.54 2052.08 435.54 2036.56 462.41 2052.08 489.29 2083.11 489.29 2098.63 462.41 2083.11 435.54"/><polygon class="cls-2" points="2141.3 401.94 2110.27 401.94 2094.75 428.82 2110.27 455.69 2141.3 455.69 2156.82 428.82 2141.3 401.94"/><polygon class="cls-2" points="2257.68 401.94 2226.65 401.94 2211.13 428.82 2226.65 455.69 2257.68 455.69 2273.2 428.82 2257.68 401.94"/><polygon class="cls-2" points="2374.06 401.94 2343.03 401.94 2327.51 428.82 2343.03 455.69 2374.06 455.69 2389.58 428.82 2374.06 401.94"/><polygon class="cls-2" points="2141.3 469.13 2110.27 469.13 2094.75 496.01 2110.27 522.88 2141.3 522.88 2156.82 496.01 2141.3 469.13"/><polygon class="cls-2" points="2199.49 435.54 2168.46 435.54 2152.94 462.41 2168.46 489.29 2199.49 489.29 2215.01 462.41 2199.49 435.54"/><polygon class="cls-2" points="2199.49 569.92 2168.46 569.92 2152.94 596.79 2168.46 623.67 2199.49 623.67 2215.01 596.79 2199.49 569.92"/><polygon class="cls-2" points="2199.49 502.73 2168.46 502.73 2152.94 529.6 2168.46 556.48 2199.49 556.48 2215.01 529.6 2199.49 502.73"/><polygon class="cls-2" points="2257.68 469.13 2226.65 469.13 2211.13 496.01 2226.65 522.88 2257.68 522.88 2273.2 496.01 2257.68 469.13"/><polygon class="cls-2" points="2257.68 536.32 2226.65 536.32 2211.13 563.2 2226.65 590.07 2257.68 590.07 2273.2 563.2 2257.68 536.32"/><polygon class="cls-2" points="1966.74 569.92 1935.7 569.92 1920.19 596.79 1935.7 623.67 1966.74 623.67 1982.25 596.79 1966.74 569.92"/><polygon class="cls-2" points="1908.55 536.32 1877.51 536.32 1862 563.2 1877.51 590.07 1908.55 590.07 1924.06 563.2 1908.55 536.32"/><polygon class="cls-2" points="1850.36 502.73 1819.32 502.73 1803.81 529.6 1819.32 556.48 1850.36 556.48 1865.88 529.6 1850.36 502.73"/><polygon class="cls-2" points="1850.36 569.92 1819.32 569.92 1803.81 596.79 1819.32 623.67 1850.36 623.67 1865.88 596.79 1850.36 569.92"/><polygon class="cls-2" points="2315.87 502.73 2284.84 502.73 2269.32 529.6 2284.84 556.48 2315.87 556.48 2331.39 529.6 2315.87 502.73"/><polygon class="cls-2" points="2315.87 569.92 2284.84 569.92 2269.32 596.79 2284.84 623.67 2315.87 623.67 2331.39 596.79 2315.87 569.92"/><polygon class="cls-2" points="2374.06 536.32 2343.03 536.32 2327.51 563.2 2343.03 590.07 2374.06 590.07 2389.58 563.2 2374.06 536.32"/><polygon class="cls-2" points="2432.25 502.73 2401.21 502.73 2385.7 529.6 2401.21 556.48 2432.25 556.48 2447.77 529.6 2432.25 502.73"/><polygon class="cls-2" points="2315.87 435.54 2284.84 435.54 2269.32 462.41 2284.84 489.29 2315.87 489.29 2331.39 462.41 2315.87 435.54"/><polygon class="cls-2" points="2374.06 469.13 2343.03 469.13 2327.51 496.01 2343.03 522.88 2374.06 522.88 2389.58 496.01 2374.06 469.13"/><polygon class="cls-2" points="2432.25 569.92 2401.21 569.92 2385.7 596.79 2401.21 623.67 2432.25 623.67 2447.77 596.79 2432.25 569.92"/><polygon class="cls-2" points="1908.55 603.51 1877.51 603.51 1862 630.39 1877.51 657.26 1908.55 657.26 1924.06 630.39 1908.55 603.51"/><polygon class="cls-2" points="2083.11 637.11 2052.08 637.11 2036.56 663.98 2052.08 690.86 2083.11 690.86 2098.63 663.98 2083.11 637.11"/><polygon class="cls-2" points="2141.3 603.51 2110.27 603.51 2094.75 630.39 2110.27 657.26 2141.3 657.26 2156.82 630.39 2141.3 603.51"/><polygon class="cls-2" points="2141.3 670.7 2110.27 670.7 2094.75 697.58 2110.27 724.46 2141.3 724.46 2156.82 697.58 2141.3 670.7"/><polygon class="cls-2" points="2199.49 704.3 2168.46 704.3 2152.94 731.17 2168.46 758.05 2199.49 758.05 2215.01 731.17 2199.49 704.3"/><polygon class="cls-2" points="2199.49 637.11 2168.46 637.11 2152.94 663.98 2168.46 690.86 2199.49 690.86 2215.01 663.98 2199.49 637.11"/><polygon class="cls-2" points="2257.68 603.51 2226.65 603.51 2211.13 630.39 2226.65 657.26 2257.68 657.26 2273.2 630.39 2257.68 603.51"/><polygon class="cls-2" points="2257.68 670.7 2226.65 670.7 2211.13 697.58 2226.65 724.46 2257.68 724.46 2273.2 697.58 2257.68 670.7"/><polygon class="cls-2" points="1966.74 704.3 1935.7 704.3 1920.19 731.17 1935.7 758.05 1966.74 758.05 1982.25 731.17 1966.74 704.3"/><polygon class="cls-2" points="1850.36 704.3 1819.32 704.3 1803.81 731.17 1819.32 758.05 1850.36 758.05 1865.88 731.17 1850.36 704.3"/><polygon class="cls-2" points="2315.87 637.11 2284.84 637.11 2269.32 663.98 2284.84 690.86 2315.87 690.86 2331.39 663.98 2315.87 637.11"/><polygon class="cls-2" points="2315.87 704.3 2284.84 704.3 2269.32 731.17 2284.84 758.05 2315.87 758.05 2331.39 731.17 2315.87 704.3"/><polygon class="cls-2" points="2374.06 670.7 2343.03 670.7 2327.51 697.58 2343.03 724.46 2374.06 724.46 2389.58 697.58 2374.06 670.7"/><polygon class="cls-2" points="2432.25 637.11 2401.21 637.11 2385.7 663.98 2401.21 690.86 2432.25 690.86 2447.77 663.98 2432.25 637.11"/><polygon class="cls-2" points="2374.06 603.51 2343.03 603.51 2327.51 630.39 2343.03 657.26 2374.06 657.26 2389.58 630.39 2374.06 603.51"/><polygon class="cls-2" points="2432.25 704.3 2401.21 704.3 2385.7 731.17 2401.21 758.05 2432.25 758.05 2447.77 731.17 2432.25 704.3"/><polygon class="cls-2" points="2432.25 435.54 2401.21 435.54 2385.7 462.41 2401.21 489.29 2432.25 489.29 2447.77 462.41 2432.25 435.54"/><polygon class="cls-2" points="1792.17 334.75 1761.14 334.75 1745.62 361.63 1761.14 388.5 1792.17 388.5 1807.69 361.63 1792.17 334.75"/><polygon class="cls-2" points="1792.17 469.13 1761.14 469.13 1745.62 496.01 1761.14 522.88 1792.17 522.88 1807.69 496.01 1792.17 469.13"/><polygon class="cls-2" points="1792.17 536.32 1761.14 536.32 1745.62 563.2 1761.14 590.07 1792.17 590.07 1807.69 563.2 1792.17 536.32"/><polygon class="cls-2" points="1733.98 502.73 1702.95 502.73 1687.43 529.6 1702.95 556.48 1733.98 556.48 1749.5 529.6 1733.98 502.73"/><polygon class="cls-2" points="1733.98 569.92 1702.95 569.92 1687.43 596.79 1702.95 623.67 1733.98 623.67 1749.5 596.79 1733.98 569.92"/><polygon class="cls-2" points="1792.17 670.7 1761.14 670.7 1745.62 697.58 1761.14 724.46 1792.17 724.46 1807.69 697.58 1792.17 670.7"/><polygon class="cls-2" points="1733.98 704.3 1702.95 704.3 1687.43 731.17 1702.95 758.05 1733.98 758.05 1749.5 731.17 1733.98 704.3"/><polygon class="cls-2" points="2490.44 65.99 2459.4 65.99 2443.89 92.86 2459.4 119.74 2490.44 119.74 2505.95 92.86 2490.44 65.99"/><polygon class="cls-2" points="2490.44 267.56 2459.4 267.56 2443.89 294.43 2459.4 321.31 2490.44 321.31 2505.95 294.43 2490.44 267.56"/><polygon class="cls-2" points="2490.44 200.37 2459.4 200.37 2443.89 227.24 2459.4 254.12 2490.44 254.12 2505.95 227.24 2490.44 200.37"/><polygon class="cls-2" points="2490.44 334.75 2459.4 334.75 2443.89 361.63 2459.4 388.5 2490.44 388.5 2505.95 361.63 2490.44 334.75"/><polygon class="cls-2" points="2490.44 401.94 2459.4 401.94 2443.89 428.82 2459.4 455.69 2490.44 455.69 2505.95 428.82 2490.44 401.94"/><polygon class="cls-2" points="2490.44 536.32 2459.4 536.32 2443.89 563.2 2459.4 590.07 2490.44 590.07 2505.95 563.2 2490.44 536.32"/><polygon class="cls-2" points="2490.44 469.13 2459.4 469.13 2443.89 496.01 2459.4 522.88 2490.44 522.88 2505.95 496.01 2490.44 469.13"/><polygon class="cls-2" points="2490.44 670.7 2459.4 670.7 2443.89 697.58 2459.4 724.46 2490.44 724.46 2505.95 697.58 2490.44 670.7"/><polygon class="cls-2" points="2490.44 603.51 2459.4 603.51 2443.89 630.39 2459.4 657.26 2490.44 657.26 2505.95 630.39 2490.44 603.51"/><polygon class="cls-2" points="2897.72 99.58 2866.69 99.58 2851.17 126.46 2866.69 153.33 2897.72 153.33 2913.24 126.46 2897.72 99.58"/><polygon class="cls-2" points="2664.97 166.77 2633.93 166.77 2618.42 193.65 2633.93 220.52 2664.97 220.52 2680.48 193.65 2664.97 166.77"/><polygon class="cls-2" points="2723.16 200.37 2692.12 200.37 2676.61 227.24 2692.12 254.12 2723.16 254.12 2738.67 227.24 2723.16 200.37"/><polygon class="cls-2" points="2781.35 166.77 2750.31 166.77 2734.79 193.65 2750.31 220.52 2781.35 220.52 2796.86 193.65 2781.35 166.77"/><polygon class="cls-2" points="2781.35 233.96 2750.31 233.96 2734.79 260.84 2750.31 287.72 2781.35 287.72 2796.86 260.84 2781.35 233.96"/><polygon class="cls-2" points="2839.53 200.37 2808.5 200.37 2792.98 227.24 2808.5 254.12 2839.53 254.12 2855.05 227.24 2839.53 200.37"/><polygon class="cls-2" points="2839.53 267.56 2808.5 267.56 2792.98 294.43 2808.5 321.31 2839.53 321.31 2855.05 294.43 2839.53 267.56"/><polygon class="cls-2" points="2897.72 233.96 2866.69 233.96 2851.17 260.84 2866.69 287.72 2897.72 287.72 2913.24 260.84 2897.72 233.96"/><polygon class="cls-2" points="2955.91 200.37 2924.88 200.37 2909.36 227.24 2924.88 254.12 2955.91 254.12 2971.43 227.24 2955.91 200.37"/><polygon class="cls-2" points="2897.72 301.15 2866.69 301.15 2851.17 328.03 2866.69 354.91 2897.72 354.91 2913.24 328.03 2897.72 301.15"/><polygon class="cls-2" points="2955.91 267.56 2924.88 267.56 2909.36 294.43 2924.88 321.31 2955.91 321.31 2971.43 294.43 2955.91 267.56"/><polygon class="cls-2" points="3014.1 301.15 2983.07 301.15 2967.55 328.03 2983.07 354.91 3014.1 354.91 3029.62 328.03 3014.1 301.15"/><polygon class="cls-2" points="3014.1 233.96 2983.07 233.96 2967.55 260.84 2983.07 287.72 3014.1 287.72 3029.62 260.84 3014.1 233.96"/><polygon class="cls-2" points="3072.13 200.36 3041.1 200.37 3025.59 227.25 3041.11 254.12 3072.15 254.12 3087.66 227.24 3072.13 200.36"/><polygon class="cls-2" points="3072.15 267.55 3041.11 267.56 3025.6 294.44 3041.13 321.31 3072.16 321.31 3087.67 294.43 3072.15 267.55"/><polygon class="cls-2" points="2781.35 301.15 2750.31 301.15 2734.79 328.03 2750.31 354.91 2781.35 354.91 2796.86 328.03 2781.35 301.15"/><polygon class="cls-2" points="2723.16 267.56 2692.12 267.56 2676.61 294.43 2692.12 321.31 2723.16 321.31 2738.67 294.43 2723.16 267.56"/><polygon class="cls-2" points="2664.97 233.96 2633.93 233.96 2618.42 260.84 2633.93 287.72 2664.97 287.72 2680.48 260.84 2664.97 233.96"/><polygon class="cls-2" points="2664.97 301.15 2633.93 301.15 2618.42 328.03 2633.93 354.91 2664.97 354.91 2680.48 328.03 2664.97 301.15"/><polygon class="cls-2" points="3130.48 233.96 3099.44 233.96 3083.93 260.84 3099.44 287.72 3130.48 287.72 3146 260.84 3130.48 233.96"/><polygon class="cls-2" points="3130.48 301.15 3099.44 301.15 3083.93 328.03 3099.44 354.91 3130.48 354.91 3146 328.03 3130.48 301.15"/><polygon class="cls-2" points="3188.67 267.56 3157.63 267.56 3142.12 294.43 3157.63 321.31 3188.67 321.31 3204.18 294.43 3188.67 267.56"/><polygon class="cls-2" points="3246.86 233.96 3215.82 233.96 3200.31 260.84 3215.82 287.72 3246.86 287.72 3262.37 260.84 3246.86 233.96"/><polygon class="cls-2" points="3188.67 200.37 3157.63 200.37 3142.12 227.24 3157.63 254.12 3188.67 254.12 3204.18 227.24 3188.67 200.37"/><polygon class="cls-2" points="3246.86 301.15 3215.82 301.15 3200.31 328.03 3215.82 354.91 3246.86 354.91 3262.37 328.03 3246.86 301.15"/><polygon class="cls-2" points="2839.53 334.75 2808.5 334.75 2792.98 361.63 2808.5 388.5 2839.53 388.5 2855.05 361.63 2839.53 334.75"/><polygon class="cls-2" points="2897.72 368.34 2866.69 368.34 2851.17 395.22 2866.69 422.1 2897.72 422.1 2913.24 395.22 2897.72 368.34"/><polygon class="cls-2" points="2955.91 334.75 2924.88 334.75 2909.36 361.63 2924.88 388.5 2955.91 388.5 2971.43 361.63 2955.91 334.75"/><polygon class="cls-2" points="3014.1 368.34 2983.07 368.34 2967.55 395.22 2983.07 422.1 3014.1 422.1 3029.62 395.22 3014.1 368.34"/><polygon class="cls-2" points="3072.16 334.75 3041.13 334.75 3025.62 361.63 3041.14 388.5 3072.17 388.5 3087.69 361.62 3072.16 334.75"/><polygon class="cls-2" points="2781.35 368.34 2750.31 368.34 2734.79 395.22 2750.31 422.1 2781.35 422.1 2796.86 395.22 2781.35 368.34"/><polygon class="cls-2" points="2723.16 334.75 2692.12 334.75 2676.61 361.63 2692.12 388.5 2723.16 388.5 2738.67 361.63 2723.16 334.75"/><polygon class="cls-2" points="2664.97 368.34 2633.93 368.34 2618.42 395.22 2633.93 422.1 2664.97 422.1 2680.48 395.22 2664.97 368.34"/><polygon class="cls-2" points="3130.48 368.34 3099.44 368.34 3083.93 395.22 3099.44 422.1 3130.48 422.1 3146 395.22 3130.48 368.34"/><polygon class="cls-2" points="2664.97 435.54 2633.93 435.54 2618.42 462.41 2633.93 489.29 2664.97 489.29 2680.48 462.41 2664.97 435.54"/><polygon class="cls-2" points="2723.16 401.94 2692.12 401.94 2676.61 428.82 2692.12 455.69 2723.16 455.69 2738.67 428.82 2723.16 401.94"/><polygon class="cls-2" points="2723.16 469.13 2692.12 469.13 2676.61 496.01 2692.12 522.88 2723.16 522.88 2738.67 496.01 2723.16 469.13"/><polygon class="cls-2" points="2781.35 435.54 2750.31 435.54 2734.79 462.41 2750.31 489.29 2781.35 489.29 2796.86 462.41 2781.35 435.54"/><polygon class="cls-2" points="2781.35 502.73 2750.31 502.73 2734.79 529.6 2750.31 556.48 2781.35 556.48 2796.86 529.6 2781.35 502.73"/><polygon class="cls-2" points="2839.53 469.13 2808.5 469.13 2792.98 496.01 2808.5 522.88 2839.53 522.88 2855.05 496.01 2839.53 469.13"/><polygon class="cls-2" points="2839.53 536.32 2808.5 536.32 2792.98 563.2 2808.5 590.07 2839.53 590.07 2855.05 563.2 2839.53 536.32"/><polygon class="cls-2" points="2897.72 502.73 2866.69 502.73 2851.17 529.6 2866.69 556.48 2897.72 556.48 2913.24 529.6 2897.72 502.73"/><polygon class="cls-2" points="2839.53 401.94 2808.5 401.94 2792.98 428.82 2808.5 455.69 2839.53 455.69 2855.05 428.82 2839.53 401.94"/><polygon class="cls-2" points="2897.72 435.54 2866.69 435.54 2851.17 462.41 2866.69 489.29 2897.72 489.29 2913.24 462.41 2897.72 435.54"/><polygon class="cls-2" points="2955.91 401.94 2924.88 401.94 2909.36 428.82 2924.88 455.69 2955.91 455.69 2971.43 428.82 2955.91 401.94"/><polygon class="cls-2" points="3072.18 401.94 3041.14 401.94 3025.63 428.82 3041.15 455.7 3072.19 455.69 3087.7 428.81 3072.18 401.94"/><polygon class="cls-2" points="3188.67 401.94 3157.63 401.94 3142.12 428.82 3157.63 455.69 3188.67 455.69 3204.18 428.82 3188.67 401.94"/><polygon class="cls-2" points="2955.91 469.13 2924.88 469.13 2909.36 496.01 2924.88 522.88 2955.91 522.88 2971.43 496.01 2955.91 469.13"/><polygon class="cls-2" points="3014.1 435.54 2983.07 435.54 2967.55 462.41 2983.07 489.29 3014.1 489.29 3029.62 462.41 3014.1 435.54"/><polygon class="cls-2" points="2897.72 569.92 2866.69 569.92 2851.17 596.79 2866.69 623.67 2897.72 623.67 2913.24 596.79 2897.72 569.92"/><polygon class="cls-2" points="2955.91 536.32 2924.88 536.32 2909.36 563.2 2924.88 590.07 2955.91 590.07 2971.43 563.2 2955.91 536.32"/><polygon class="cls-2" points="3014.1 569.92 2983.07 569.92 2967.55 596.79 2983.07 623.67 3014.1 623.67 3029.62 596.79 3014.1 569.92"/><polygon class="cls-2" points="3014.1 502.73 2983.07 502.73 2967.55 529.6 2983.07 556.48 3014.1 556.48 3029.62 529.6 3014.1 502.73"/><polygon class="cls-2" points="3072.19 469.13 3041.16 469.13 3025.65 496.01 3041.17 522.89 3072.2 522.88 3087.71 496 3072.19 469.13"/><polygon class="cls-2" points="3072.21 536.32 3041.17 536.32 3025.66 563.2 3041.18 590.08 3072.22 590.07 3087.73 563.19 3072.21 536.32"/><polygon class="cls-2" points="2781.35 569.92 2750.31 569.92 2734.79 596.79 2750.31 623.67 2781.35 623.67 2796.86 596.79 2781.35 569.92"/><polygon class="cls-2" points="2723.16 536.32 2692.12 536.32 2676.61 563.2 2692.12 590.07 2723.16 590.07 2738.67 563.2 2723.16 536.32"/><polygon class="cls-2" points="2664.97 502.73 2633.93 502.73 2618.42 529.6 2633.93 556.48 2664.97 556.48 2680.48 529.6 2664.97 502.73"/><polygon class="cls-2" points="2664.97 569.92 2633.93 569.92 2618.42 596.79 2633.93 623.67 2664.97 623.67 2680.48 596.79 2664.97 569.92"/><polygon class="cls-2" points="3130.48 502.73 3099.44 502.73 3083.93 529.6 3099.44 556.48 3130.48 556.48 3146 529.6 3130.48 502.73"/><polygon class="cls-2" points="3130.48 569.92 3099.44 569.92 3083.93 596.79 3099.44 623.67 3130.48 623.67 3146 596.79 3130.48 569.92"/><polygon class="cls-2" points="3188.67 536.32 3157.63 536.32 3142.12 563.2 3157.63 590.07 3188.67 590.07 3204.18 563.2 3188.67 536.32"/><polygon class="cls-2" points="3130.48 435.54 3099.44 435.54 3083.93 462.41 3099.44 489.29 3130.48 489.29 3146 462.41 3130.48 435.54"/><polygon class="cls-2" points="3188.67 469.13 3157.63 469.13 3142.12 496.01 3157.63 522.88 3188.67 522.88 3204.18 496.01 3188.67 469.13"/><polygon class="cls-2" points="2723.16 603.51 2692.12 603.51 2676.61 630.39 2692.12 657.26 2723.16 657.26 2738.67 630.39 2723.16 603.51"/><polygon class="cls-2" points="2781.35 637.11 2750.31 637.11 2734.79 663.98 2750.31 690.86 2781.35 690.86 2796.86 663.98 2781.35 637.11"/><polygon class="cls-2" points="2839.53 603.51 2808.5 603.51 2792.98 630.39 2808.5 657.26 2839.53 657.26 2855.05 630.39 2839.53 603.51"/><polygon class="cls-2" points="2839.53 670.7 2808.5 670.7 2792.98 697.58 2808.5 724.46 2839.53 724.46 2855.05 697.58 2839.53 670.7"/><polygon class="cls-2" points="2897.72 637.11 2866.69 637.11 2851.17 663.98 2866.69 690.86 2897.72 690.86 2913.24 663.98 2897.72 637.11"/><polygon class="cls-2" points="2955.91 603.51 2924.88 603.51 2909.36 630.39 2924.88 657.26 2955.91 657.26 2971.43 630.39 2955.91 603.51"/><polygon class="cls-2" points="2897.72 704.3 2866.69 704.3 2851.17 731.17 2866.69 758.05 2897.72 758.05 2913.24 731.17 2897.72 704.3"/><polygon class="cls-2" points="2955.91 670.7 2924.88 670.7 2909.36 697.58 2924.88 724.46 2955.91 724.46 2971.43 697.58 2955.91 670.7"/><polygon class="cls-2" points="3014.1 704.3 2983.07 704.3 2967.55 731.17 2983.07 758.05 3014.1 758.05 3029.62 731.17 3014.1 704.3"/><polygon class="cls-2" points="3014.1 637.11 2983.07 637.11 2967.55 663.98 2983.07 690.86 3014.1 690.86 3029.62 663.98 3014.1 637.11"/><polygon class="cls-2" points="3072.22 603.51 3041.19 603.52 3025.67 630.4 3041.2 657.27 3072.23 657.26 3087.74 630.38 3072.22 603.51"/><polygon class="cls-2" points="3072.23 670.7 3041.2 670.71 3025.69 697.59 3041.21 724.46 3072.25 724.45 3087.76 697.57 3072.23 670.7"/><polygon class="cls-2" points="2781.35 704.3 2750.31 704.3 2734.79 731.17 2750.31 758.05 2781.35 758.05 2796.86 731.17 2781.35 704.3"/><polygon class="cls-2" points="2723.16 670.7 2692.12 670.7 2676.61 697.58 2692.12 724.46 2723.16 724.46 2738.67 697.58 2723.16 670.7"/><polygon class="cls-2" points="2664.97 637.11 2633.93 637.11 2618.42 663.98 2633.93 690.86 2664.97 690.86 2680.48 663.98 2664.97 637.11"/><polygon class="cls-2" points="2664.97 704.3 2633.93 704.3 2618.42 731.17 2633.93 758.05 2664.97 758.05 2680.48 731.17 2664.97 704.3"/><polygon class="cls-2" points="3130.48 704.3 3099.44 704.3 3083.93 731.17 3099.44 758.05 3130.48 758.05 3146 731.17 3130.48 704.3"/><polygon class="cls-2" points="3188.67 603.51 3157.63 603.51 3142.12 630.39 3157.63 657.26 3188.67 657.26 3204.18 630.39 3188.67 603.51"/><polygon class="cls-2" points="3246.86 704.3 3215.82 704.3 3200.31 731.17 3215.82 758.05 3246.86 758.05 3262.37 731.17 3246.86 704.3"/><polygon class="cls-2" points="3246.86 435.54 3215.82 435.54 3200.31 462.41 3215.82 489.29 3246.86 489.29 3262.37 462.41 3246.86 435.54"/><polygon class="cls-2" points="2548.59 166.77 2517.56 166.77 2502.04 193.65 2517.56 220.52 2548.59 220.52 2564.11 193.65 2548.59 166.77"/><polygon class="cls-2" points="2606.78 133.18 2575.74 133.18 2560.23 160.05 2575.74 186.93 2606.78 186.93 2622.3 160.05 2606.78 133.18"/><polygon class="cls-2" points="2606.78 200.37 2575.74 200.37 2560.23 227.24 2575.74 254.12 2606.78 254.12 2622.3 227.24 2606.78 200.37"/><polygon class="cls-2" points="2606.78 267.56 2575.74 267.56 2560.23 294.43 2575.74 321.31 2606.78 321.31 2622.3 294.43 2606.78 267.56"/><polygon class="cls-2" points="2548.59 233.96 2517.56 233.96 2502.04 260.84 2517.56 287.72 2548.59 287.72 2564.11 260.84 2548.59 233.96"/><polygon class="cls-2" points="2548.59 301.15 2517.56 301.15 2502.04 328.03 2517.56 354.91 2548.59 354.91 2564.11 328.03 2548.59 301.15"/><polygon class="cls-2" points="2606.78 334.75 2575.74 334.75 2560.23 361.63 2575.74 388.5 2606.78 388.5 2622.3 361.63 2606.78 334.75"/><polygon class="cls-2" points="2548.59 368.34 2517.56 368.34 2502.04 395.22 2517.56 422.1 2548.59 422.1 2564.11 395.22 2548.59 368.34"/><polygon class="cls-2" points="2548.59 435.54 2517.56 435.54 2502.04 462.41 2517.56 489.29 2548.59 489.29 2564.11 462.41 2548.59 435.54"/><polygon class="cls-2" points="2606.78 401.94 2575.74 401.94 2560.23 428.82 2575.74 455.69 2606.78 455.69 2622.3 428.82 2606.78 401.94"/><polygon class="cls-2" points="2606.78 469.13 2575.74 469.13 2560.23 496.01 2575.74 522.88 2606.78 522.88 2622.3 496.01 2606.78 469.13"/><polygon class="cls-2" points="2606.78 536.32 2575.74 536.32 2560.23 563.2 2575.74 590.07 2606.78 590.07 2622.3 563.2 2606.78 536.32"/><polygon class="cls-2" points="2548.59 502.73 2517.56 502.73 2502.04 529.6 2517.56 556.48 2548.59 556.48 2564.11 529.6 2548.59 502.73"/><polygon class="cls-2" points="2548.59 569.92 2517.56 569.92 2502.04 596.79 2517.56 623.67 2548.59 623.67 2564.11 596.79 2548.59 569.92"/><polygon class="cls-2" points="2606.78 603.51 2575.74 603.51 2560.23 630.39 2575.74 657.26 2606.78 657.26 2622.3 630.39 2606.78 603.51"/><polygon class="cls-2" points="2606.78 670.7 2575.74 670.7 2560.23 697.58 2575.74 724.46 2606.78 724.46 2622.3 697.58 2606.78 670.7"/><polygon class="cls-2" points="2548.59 637.11 2517.56 637.11 2502.04 663.98 2517.56 690.86 2548.59 690.86 2564.11 663.98 2548.59 637.11"/><polygon class="cls-2" points="2548.59 704.3 2517.56 704.3 2502.04 731.17 2517.56 758.05 2548.59 758.05 2564.11 731.17 2548.59 704.3"/><polygon class="cls-2" points="3305.05 267.56 3274.01 267.56 3258.49 294.43 3274.01 321.31 3305.05 321.31 3320.56 294.43 3305.05 267.56"/><polygon class="cls-2" points="3305.05 200.37 3274.01 200.37 3258.49 227.24 3274.01 254.12 3305.05 254.12 3320.56 227.24 3305.05 200.37"/><polygon class="cls-2" points="3305.05 334.75 3274.01 334.75 3258.49 361.63 3274.01 388.5 3305.05 388.5 3320.56 361.63 3305.05 334.75"/><polygon class="cls-2" points="3305.05 536.32 3274.01 536.32 3258.49 563.2 3274.01 590.07 3305.05 590.07 3320.56 563.2 3305.05 536.32"/><polygon class="cls-2" points="3305.05 670.7 3274.01 670.7 3258.49 697.58 3274.01 724.46 3305.05 724.46 3320.56 697.58 3305.05 670.7"/><polygon class="cls-2" points="3305.05 603.51 3274.01 603.51 3258.49 630.39 3274.01 657.26 3305.05 657.26 3320.56 630.39 3305.05 603.51"/><polygon class="cls-2" points="3363.16 233.96 3332.13 233.96 3316.61 260.84 3332.13 287.72 3363.16 287.72 3378.68 260.84 3363.16 233.96"/><polygon class="cls-2" points="3421.35 267.56 3390.32 267.56 3374.8 294.43 3390.32 321.31 3421.35 321.31 3436.87 294.43 3421.35 267.56"/><polygon class="cls-2" points="3479.54 233.96 3448.51 233.96 3432.99 260.84 3448.51 287.72 3479.54 287.72 3495.06 260.84 3479.54 233.96"/><polygon class="cls-2" points="3363.16 301.15 3332.13 301.15 3316.61 328.03 3332.13 354.91 3363.16 354.91 3378.68 328.03 3363.16 301.15"/><polygon class="cls-2" points="3363.16 368.34 3332.13 368.34 3316.61 395.22 3332.13 422.1 3363.16 422.1 3378.68 395.22 3363.16 368.34"/><polygon class="cls-2" points="3363.16 435.54 3332.13 435.54 3316.61 462.41 3332.13 489.29 3363.16 489.29 3378.68 462.41 3363.16 435.54"/><polygon class="cls-2" points="337.51 771.49 306.48 771.49 290.96 798.37 306.48 825.24 337.51 825.24 353.03 798.37 337.51 771.49"/><polygon class="cls-2" points="337.51 838.68 306.48 838.68 290.96 865.56 306.48 892.43 337.51 892.43 353.03 865.56 337.51 838.68"/><polygon class="cls-2" points="453.89 838.68 422.85 838.68 407.34 865.56 422.85 892.43 453.89 892.43 469.41 865.56 453.89 838.68"/><polygon class="cls-2" points="395.7 737.89 364.67 737.89 349.15 764.77 364.67 791.65 395.7 791.65 411.22 764.77 395.7 737.89"/><polygon class="cls-2" points="453.89 771.49 422.85 771.49 407.34 798.37 422.85 825.24 453.89 825.24 469.41 798.37 453.89 771.49"/><polygon class="cls-2" points="512.08 737.89 481.04 737.89 465.53 764.77 481.04 791.65 512.08 791.65 527.59 764.77 512.08 737.89"/><polygon class="cls-2" points="628.46 737.89 597.42 737.89 581.9 764.77 597.42 791.65 628.46 791.65 643.97 764.77 628.46 737.89"/><polygon class="cls-2" points="744.83 737.89 713.8 737.89 698.28 764.77 713.8 791.65 744.83 791.65 760.35 764.77 744.83 737.89"/><polygon class="cls-2" points="512.08 805.08 481.04 805.08 465.53 831.96 481.04 858.84 512.08 858.84 527.59 831.96 512.08 805.08"/><polygon class="cls-2" points="570.27 771.49 539.23 771.49 523.71 798.37 539.23 825.24 570.27 825.24 585.78 798.37 570.27 771.49"/><polygon class="cls-2" points="453.89 905.87 422.85 905.87 407.34 932.75 422.85 959.62 453.89 959.62 469.41 932.75 453.89 905.87"/><polygon class="cls-2" points="512.08 872.28 481.04 872.28 465.53 899.15 481.04 926.03 512.08 926.03 527.59 899.15 512.08 872.28"/><polygon class="cls-2" points="570.27 905.87 539.23 905.87 523.71 932.75 539.23 959.62 570.27 959.62 585.78 932.75 570.27 905.87"/><polygon class="cls-2" points="628.46 872.28 597.42 872.28 581.9 899.15 597.42 926.03 628.46 926.03 643.97 899.15 628.46 872.28"/><polygon class="cls-2" points="744.83 872.28 713.8 872.28 698.28 899.15 713.8 926.03 744.83 926.03 760.35 899.15 744.83 872.28"/><polygon class="cls-2" points="803.02 905.87 771.99 905.87 756.47 932.75 771.99 959.62 803.02 959.62 818.54 932.75 803.02 905.87"/><polygon class="cls-2" points="512.08 939.47 481.04 939.47 465.53 966.34 481.04 993.22 512.08 993.22 527.59 966.34 512.08 939.47"/><polygon class="cls-2" points="628.46 939.47 597.42 939.47 581.9 966.34 597.42 993.22 628.46 993.22 643.97 966.34 628.46 939.47"/><polygon class="cls-2" points="628.46 1006.66 597.42 1006.66 581.9 1033.53 597.42 1060.41 628.46 1060.41 643.97 1033.53 628.46 1006.66"/><polygon class="cls-2" points="686.64 1040.25 655.61 1040.25 640.09 1067.13 655.61 1094.01 686.64 1094.01 702.16 1067.13 686.64 1040.25"/><polygon class="cls-2" points="744.83 1073.85 713.8 1073.85 698.28 1100.72 713.8 1127.6 744.83 1127.6 760.35 1100.72 744.83 1073.85"/><polygon class="cls-2" points="803.02 1040.25 771.99 1040.25 756.47 1067.13 771.99 1094.01 803.02 1094.01 818.54 1067.13 803.02 1040.25"/><polygon class="cls-2" points="686.64 973.06 655.61 973.06 640.09 999.94 655.61 1026.81 686.64 1026.81 702.16 999.94 686.64 973.06"/><polygon class="cls-2" points="744.83 1006.66 713.8 1006.66 698.28 1033.53 713.8 1060.41 744.83 1060.41 760.35 1033.53 744.83 1006.66"/><polygon class="cls-2" points="803.02 1107.44 771.99 1107.44 756.47 1134.32 771.99 1161.2 803.02 1161.2 818.54 1134.32 803.02 1107.44"/><polygon class="cls-2" points="744.83 1141.04 713.8 1141.04 698.28 1167.91 713.8 1194.79 744.83 1194.79 760.35 1167.91 744.83 1141.04"/><polygon class="cls-2" points="803.02 1174.63 771.99 1174.63 756.47 1201.51 771.99 1228.39 803.02 1228.39 818.54 1201.51 803.02 1174.63"/><polygon class="cls-2" points="744.83 1208.23 713.8 1208.23 698.28 1235.11 713.8 1261.98 744.83 1261.98 760.35 1235.11 744.83 1208.23"/><polygon class="cls-2" points="803.02 1309.02 771.99 1309.02 756.47 1335.89 771.99 1362.77 803.02 1362.77 818.54 1335.89 803.02 1309.02"/><polygon class="cls-2" points="744.83 1275.42 713.8 1275.42 698.28 1302.3 713.8 1329.17 744.83 1329.17 760.35 1302.3 744.83 1275.42"/><polygon class="cls-2" points="803.02 1241.82 771.99 1241.82 756.47 1268.7 771.99 1295.58 803.02 1295.58 818.54 1268.7 803.02 1241.82"/><polygon class="cls-2" points="861.21 872.28 830.18 872.28 814.66 899.15 830.18 926.03 861.21 926.03 876.73 899.15 861.21 872.28"/><polygon class="cls-2" points="861.21 1073.85 830.18 1073.85 814.66 1100.72 830.18 1127.6 861.21 1127.6 876.73 1100.72 861.21 1073.85"/><polygon class="cls-2" points="861.21 1006.66 830.18 1006.66 814.66 1033.53 830.18 1060.41 861.21 1060.41 876.73 1033.53 861.21 1006.66"/><polygon class="cls-2" points="861.21 1141.04 830.18 1141.04 814.66 1167.91 830.18 1194.79 861.21 1194.79 876.73 1167.91 861.21 1141.04"/><polygon class="cls-2" points="861.21 1208.23 830.18 1208.23 814.66 1235.11 830.18 1261.98 861.21 1261.98 876.73 1235.11 861.21 1208.23"/><polygon class="cls-2" points="861.21 1342.61 830.18 1342.61 814.66 1369.49 830.18 1396.36 861.21 1396.36 876.73 1369.49 861.21 1342.61"/><polygon class="cls-2" points="861.21 1275.42 830.18 1275.42 814.66 1302.3 830.18 1329.17 861.21 1329.17 876.73 1302.3 861.21 1275.42"/><polygon class="cls-2" points="861.21 1476.99 830.18 1476.99 814.66 1503.87 830.18 1530.75 861.21 1530.75 876.73 1503.87 861.21 1476.99"/><polygon class="cls-2" points="861.21 1409.8 830.18 1409.8 814.66 1436.68 830.18 1463.55 861.21 1463.55 876.73 1436.68 861.21 1409.8"/><polygon class="cls-2" points="1559.44 872.28 1528.41 872.28 1512.89 899.15 1528.41 926.03 1559.44 926.03 1574.96 899.15 1559.44 872.28"/><polygon class="cls-2" points="1617.63 838.68 1586.6 838.68 1571.08 865.56 1586.6 892.43 1617.63 892.43 1633.15 865.56 1617.63 838.68"/><polygon class="cls-2" points="1559.44 805.08 1528.41 805.08 1512.89 831.96 1528.41 858.84 1559.44 858.84 1574.96 831.96 1559.44 805.08"/><polygon class="cls-2" points="1617.63 905.87 1586.6 905.87 1571.08 932.75 1586.6 959.62 1617.63 959.62 1633.15 932.75 1617.63 905.87"/><polygon class="cls-2" points="1617.63 771.49 1586.6 771.49 1571.08 798.37 1586.6 825.24 1617.63 825.24 1633.15 798.37 1617.63 771.49"/><polygon class="cls-2" points="1559.44 939.47 1528.41 939.47 1512.89 966.34 1528.41 993.22 1559.44 993.22 1574.96 966.34 1559.44 939.47"/><polygon class="cls-2" points="1035.74 1107.44 1004.71 1107.44 989.19 1134.32 1004.71 1161.2 1035.74 1161.2 1051.26 1134.32 1035.74 1107.44"/><polygon class="cls-2" points="1617.63 1040.25 1586.6 1040.25 1571.08 1067.13 1586.6 1094.01 1617.63 1094.01 1633.15 1067.13 1617.63 1040.25"/><polygon class="cls-2" points="1559.44 1006.66 1528.41 1006.66 1512.89 1033.53 1528.41 1060.41 1559.44 1060.41 1574.96 1033.53 1559.44 1006.66"/><polygon class="cls-2" points="1617.63 973.06 1586.6 973.06 1571.08 999.94 1586.6 1026.81 1617.63 1026.81 1633.15 999.94 1617.63 973.06"/><polygon class="cls-2" points="1152.12 1174.63 1121.08 1174.63 1105.57 1201.51 1121.08 1228.39 1152.12 1228.39 1167.64 1201.51 1152.12 1174.63"/><polygon class="cls-2" points="1093.93 1141.04 1062.9 1141.04 1047.38 1167.91 1062.9 1194.79 1093.93 1194.79 1109.45 1167.91 1093.93 1141.04"/><polygon class="cls-2" points="1035.74 1174.63 1004.71 1174.63 989.19 1201.51 1004.71 1228.39 1035.74 1228.39 1051.26 1201.51 1035.74 1174.63"/><polygon class="cls-2" points="1035.74 1241.82 1004.71 1241.82 989.19 1268.7 1004.71 1295.58 1035.74 1295.58 1051.26 1268.7 1035.74 1241.82"/><polygon class="cls-2" points="1093.93 1208.23 1062.9 1208.23 1047.38 1235.11 1062.9 1261.98 1093.93 1261.98 1109.45 1235.11 1093.93 1208.23"/><polygon class="cls-2" points="1093.93 1275.42 1062.9 1275.42 1047.38 1302.3 1062.9 1329.17 1093.93 1329.17 1109.45 1302.3 1093.93 1275.42"/><polygon class="cls-2" points="1152.12 1241.82 1121.08 1241.82 1105.57 1268.7 1121.08 1295.58 1152.12 1295.58 1167.64 1268.7 1152.12 1241.82"/><polygon class="cls-2" points="1152.12 1309.02 1121.08 1309.02 1105.57 1335.89 1121.08 1362.77 1152.12 1362.77 1167.64 1335.89 1152.12 1309.02"/><polygon class="cls-2" points="1210.31 1275.42 1179.27 1275.42 1163.76 1302.3 1179.27 1329.17 1210.31 1329.17 1225.82 1302.3 1210.31 1275.42"/><polygon class="cls-2" points="1210.31 1342.61 1179.27 1342.61 1163.76 1369.49 1179.27 1396.36 1210.31 1396.36 1225.82 1369.49 1210.31 1342.61"/><polygon class="cls-2" points="1210.31 1208.23 1179.27 1208.23 1163.76 1235.11 1179.27 1261.98 1210.31 1261.98 1225.82 1235.11 1210.31 1208.23"/><polygon class="cls-2" points="1152.12 1376.21 1121.08 1376.21 1105.57 1403.08 1121.08 1429.96 1152.12 1429.96 1167.64 1403.08 1152.12 1376.21"/><polygon class="cls-2" points="1093.93 1342.61 1062.9 1342.61 1047.38 1369.49 1062.9 1396.36 1093.93 1396.36 1109.45 1369.49 1093.93 1342.61"/><polygon class="cls-2" points="1035.74 1309.02 1004.71 1309.02 989.19 1335.89 1004.71 1362.77 1035.74 1362.77 1051.26 1335.89 1035.74 1309.02"/><polygon class="cls-2" points="1035.74 1376.21 1004.71 1376.21 989.19 1403.08 1004.71 1429.96 1035.74 1429.96 1051.26 1403.08 1035.74 1376.21"/><polygon class="cls-2" points="1093.93 1409.8 1062.9 1409.8 1047.38 1436.68 1062.9 1463.55 1093.93 1463.55 1109.45 1436.68 1093.93 1409.8"/><polygon class="cls-2" points="1152.12 1443.4 1121.08 1443.4 1105.57 1470.27 1121.08 1497.15 1152.12 1497.15 1167.64 1470.27 1152.12 1443.4"/><polygon class="cls-2" points="1210.31 1409.8 1179.27 1409.8 1163.76 1436.68 1179.27 1463.55 1210.31 1463.55 1225.82 1436.68 1210.31 1409.8"/><polygon class="cls-2" points="1093.93 1476.99 1062.9 1476.99 1047.38 1503.87 1062.9 1530.75 1093.93 1530.75 1109.45 1503.87 1093.93 1476.99"/><polygon class="cls-2" points="1035.74 1443.4 1004.71 1443.4 989.19 1470.27 1004.71 1497.15 1035.74 1497.15 1051.26 1470.27 1035.74 1443.4"/><polygon class="cls-2" points="1035.74 1510.59 1004.71 1510.59 989.19 1537.46 1004.71 1564.34 1035.74 1564.34 1051.26 1537.46 1035.74 1510.59"/><polygon class="cls-2" points="977.55 1073.85 946.52 1073.85 931 1100.72 946.52 1127.6 977.55 1127.6 993.07 1100.72 977.55 1073.85"/><polygon class="cls-2" points="919.36 1040.25 888.33 1040.25 872.81 1067.13 888.33 1094.01 919.36 1094.01 934.88 1067.13 919.36 1040.25"/><polygon class="cls-2" points="919.36 1107.44 888.33 1107.44 872.81 1134.32 888.33 1161.2 919.36 1161.2 934.88 1134.32 919.36 1107.44"/><polygon class="cls-2" points="977.55 1141.04 946.52 1141.04 931 1167.91 946.52 1194.79 977.55 1194.79 993.07 1167.91 977.55 1141.04"/><polygon class="cls-2" points="919.36 1174.63 888.33 1174.63 872.81 1201.51 888.33 1228.39 919.36 1228.39 934.88 1201.51 919.36 1174.63"/><polygon class="cls-2" points="919.36 1241.82 888.33 1241.82 872.81 1268.7 888.33 1295.58 919.36 1295.58 934.88 1268.7 919.36 1241.82"/><polygon class="cls-2" points="977.55 1208.23 946.52 1208.23 931 1235.11 946.52 1261.98 977.55 1261.98 993.07 1235.11 977.55 1208.23"/><polygon class="cls-2" points="977.55 1275.42 946.52 1275.42 931 1302.3 946.52 1329.17 977.55 1329.17 993.07 1302.3 977.55 1275.42"/><polygon class="cls-2" points="977.55 1342.61 946.52 1342.61 931 1369.49 946.52 1396.36 977.55 1396.36 993.07 1369.49 977.55 1342.61"/><polygon class="cls-2" points="919.36 1309.02 888.33 1309.02 872.81 1335.89 888.33 1362.77 919.36 1362.77 934.88 1335.89 919.36 1309.02"/><polygon class="cls-2" points="919.36 1376.21 888.33 1376.21 872.81 1403.08 888.33 1429.96 919.36 1429.96 934.88 1403.08 919.36 1376.21"/><polygon class="cls-2" points="977.55 1409.8 946.52 1409.8 931 1436.68 946.52 1463.55 977.55 1463.55 993.07 1436.68 977.55 1409.8"/><polygon class="cls-2" points="977.55 1476.99 946.52 1476.99 931 1503.87 946.52 1530.75 977.55 1530.75 993.07 1503.87 977.55 1476.99"/><polygon class="cls-2" points="919.36 1443.4 888.33 1443.4 872.81 1470.27 888.33 1497.15 919.36 1497.15 934.88 1470.27 919.36 1443.4"/><polygon class="cls-2" points="919.36 1510.59 888.33 1510.59 872.81 1537.46 888.33 1564.34 919.36 1564.34 934.88 1537.46 919.36 1510.59"/><polygon class="cls-2" points="1675.82 737.89 1644.79 737.89 1629.27 764.77 1644.79 791.65 1675.82 791.65 1691.34 764.77 1675.82 737.89"/><polygon class="cls-2" points="1675.82 872.28 1644.79 872.28 1629.27 899.15 1644.79 926.03 1675.82 926.03 1691.34 899.15 1675.82 872.28"/><polygon class="cls-2" points="1675.82 805.08 1644.79 805.08 1629.27 831.96 1644.79 858.84 1675.82 858.84 1691.34 831.96 1675.82 805.08"/><polygon class="cls-2" points="1675.82 939.47 1644.79 939.47 1629.27 966.34 1644.79 993.22 1675.82 993.22 1691.34 966.34 1675.82 939.47"/><polygon class="cls-2" points="1675.82 1073.85 1644.79 1073.85 1629.27 1100.72 1644.79 1127.6 1675.82 1127.6 1691.34 1100.72 1675.82 1073.85"/><polygon class="cls-2" points="1675.82 1006.66 1644.79 1006.66 1629.27 1033.53 1644.79 1060.41 1675.82 1060.41 1691.34 1033.53 1675.82 1006.66"/><polygon class="cls-2" points="1850.36 771.49 1819.32 771.49 1803.81 798.37 1819.32 825.24 1850.36 825.24 1865.88 798.37 1850.36 771.49"/><polygon class="cls-2" points="1908.55 737.89 1877.51 737.89 1862 764.77 1877.51 791.65 1908.55 791.65 1924.06 764.77 1908.55 737.89"/><polygon class="cls-2" points="1908.55 805.08 1877.51 805.08 1862 831.96 1877.51 858.84 1908.55 858.84 1924.06 831.96 1908.55 805.08"/><polygon class="cls-2" points="1966.74 771.49 1935.7 771.49 1920.19 798.37 1935.7 825.24 1966.74 825.24 1982.25 798.37 1966.74 771.49"/><polygon class="cls-2" points="1966.74 838.68 1935.7 838.68 1920.19 865.56 1935.7 892.43 1966.74 892.43 1982.25 865.56 1966.74 838.68"/><polygon class="cls-2" points="2024.93 805.08 1993.89 805.08 1978.37 831.96 1993.89 858.84 2024.93 858.84 2040.44 831.96 2024.93 805.08"/><polygon class="cls-2" points="2024.93 872.28 1993.89 872.28 1978.37 899.15 1993.89 926.03 2024.93 926.03 2040.44 899.15 2024.93 872.28"/><polygon class="cls-2" points="2083.11 838.68 2052.08 838.68 2036.56 865.56 2052.08 892.43 2083.11 892.43 2098.63 865.56 2083.11 838.68"/><polygon class="cls-2" points="2024.93 737.89 1993.89 737.89 1978.37 764.77 1993.89 791.65 2024.93 791.65 2040.44 764.77 2024.93 737.89"/><polygon class="cls-2" points="2083.11 771.49 2052.08 771.49 2036.56 798.37 2052.08 825.24 2083.11 825.24 2098.63 798.37 2083.11 771.49"/><polygon class="cls-2" points="2141.3 737.89 2110.27 737.89 2094.75 764.77 2110.27 791.65 2141.3 791.65 2156.82 764.77 2141.3 737.89"/><polygon class="cls-2" points="2257.68 737.89 2226.65 737.89 2211.13 764.77 2226.65 791.65 2257.68 791.65 2273.2 764.77 2257.68 737.89"/><polygon class="cls-2" points="2374.06 737.89 2343.03 737.89 2327.51 764.77 2343.03 791.65 2374.06 791.65 2389.58 764.77 2374.06 737.89"/><polygon class="cls-2" points="2199.49 771.49 2168.46 771.49 2152.94 798.37 2168.46 825.24 2199.49 825.24 2215.01 798.37 2199.49 771.49"/><polygon class="cls-2" points="2083.11 905.87 2052.08 905.87 2036.56 932.75 2052.08 959.62 2083.11 959.62 2098.63 932.75 2083.11 905.87"/><polygon class="cls-2" points="2199.49 838.68 2168.46 838.68 2152.94 865.56 2168.46 892.43 2199.49 892.43 2215.01 865.56 2199.49 838.68"/><polygon class="cls-2" points="2257.68 805.08 2226.65 805.08 2211.13 831.96 2226.65 858.84 2257.68 858.84 2273.2 831.96 2257.68 805.08"/><polygon class="cls-2" points="2257.68 872.28 2226.65 872.28 2211.13 899.15 2226.65 926.03 2257.68 926.03 2273.2 899.15 2257.68 872.28"/><polygon class="cls-2" points="1966.74 905.87 1935.7 905.87 1920.19 932.75 1935.7 959.62 1966.74 959.62 1982.25 932.75 1966.74 905.87"/><polygon class="cls-2" points="1908.55 872.28 1877.51 872.28 1862 899.15 1877.51 926.03 1908.55 926.03 1924.06 899.15 1908.55 872.28"/><polygon class="cls-2" points="1850.36 838.68 1819.32 838.68 1803.81 865.56 1819.32 892.43 1850.36 892.43 1865.88 865.56 1850.36 838.68"/><polygon class="cls-2" points="1850.36 905.87 1819.32 905.87 1803.81 932.75 1819.32 959.62 1850.36 959.62 1865.88 932.75 1850.36 905.87"/><polygon class="cls-2" points="2315.87 838.68 2284.84 838.68 2269.32 865.56 2284.84 892.43 2315.87 892.43 2331.39 865.56 2315.87 838.68"/><polygon class="cls-2" points="2315.87 905.87 2284.84 905.87 2269.32 932.75 2284.84 959.62 2315.87 959.62 2331.39 932.75 2315.87 905.87"/><polygon class="cls-2" points="2374.06 872.28 2343.03 872.28 2327.51 899.15 2343.03 926.03 2374.06 926.03 2389.58 899.15 2374.06 872.28"/><polygon class="cls-2" points="2315.87 771.49 2284.84 771.49 2269.32 798.37 2284.84 825.24 2315.87 825.24 2331.39 798.37 2315.87 771.49"/><polygon class="cls-2" points="2432.25 771.49 2401.21 771.49 2385.7 798.37 2401.21 825.24 2432.25 825.24 2447.77 798.37 2432.25 771.49"/><polygon class="cls-2" points="1850.36 973.06 1819.32 973.06 1803.81 999.94 1819.32 1026.81 1850.36 1026.81 1865.88 999.94 1850.36 973.06"/><polygon class="cls-2" points="1908.55 939.47 1877.51 939.47 1862 966.34 1877.51 993.22 1908.55 993.22 1924.06 966.34 1908.55 939.47"/><polygon class="cls-2" points="1908.55 1006.66 1877.51 1006.66 1862 1033.53 1877.51 1060.41 1908.55 1060.41 1924.06 1033.53 1908.55 1006.66"/><polygon class="cls-2" points="1966.74 973.06 1935.7 973.06 1920.19 999.94 1935.7 1026.81 1966.74 1026.81 1982.25 999.94 1966.74 973.06"/><polygon class="cls-2" points="1966.74 1040.25 1935.7 1040.25 1920.19 1067.13 1935.7 1094.01 1966.74 1094.01 1982.25 1067.13 1966.74 1040.25"/><polygon class="cls-2" points="2024.93 1006.66 1993.89 1006.66 1978.37 1033.53 1993.89 1060.41 2024.93 1060.41 2040.44 1033.53 2024.93 1006.66"/><polygon class="cls-2" points="2024.93 1073.85 1993.89 1073.85 1978.37 1100.72 1993.89 1127.6 2024.93 1127.6 2040.44 1100.72 2024.93 1073.85"/><polygon class="cls-2" points="2083.11 1040.25 2052.08 1040.25 2036.56 1067.13 2052.08 1094.01 2083.11 1094.01 2098.63 1067.13 2083.11 1040.25"/><polygon class="cls-2" points="2024.93 939.47 1993.89 939.47 1978.37 966.34 1993.89 993.22 2024.93 993.22 2040.44 966.34 2024.93 939.47"/><polygon class="cls-2" points="2083.11 973.06 2052.08 973.06 2036.56 999.94 2052.08 1026.81 2083.11 1026.81 2098.63 999.94 2083.11 973.06"/><polygon class="cls-2" points="2141.3 939.47 2110.27 939.47 2094.75 966.34 2110.27 993.22 2141.3 993.22 2156.82 966.34 2141.3 939.47"/><polygon class="cls-2" points="2257.68 939.47 2226.65 939.47 2211.13 966.34 2226.65 993.22 2257.68 993.22 2273.2 966.34 2257.68 939.47"/><polygon class="cls-2" points="2141.3 1006.66 2110.27 1006.66 2094.75 1033.53 2110.27 1060.41 2141.3 1060.41 2156.82 1033.53 2141.3 1006.66"/><polygon class="cls-2" points="2083.11 1107.44 2052.08 1107.44 2036.56 1134.32 2052.08 1161.2 2083.11 1161.2 2098.63 1134.32 2083.11 1107.44"/><polygon class="cls-2" points="2141.3 1073.85 2110.27 1073.85 2094.75 1100.72 2110.27 1127.6 2141.3 1127.6 2156.82 1100.72 2141.3 1073.85"/><polygon class="cls-2" points="2199.49 1107.44 2168.46 1107.44 2152.94 1134.32 2168.46 1161.2 2199.49 1161.2 2215.01 1134.32 2199.49 1107.44"/><polygon class="cls-2" points="2199.49 1040.25 2168.46 1040.25 2152.94 1067.13 2168.46 1094.01 2199.49 1094.01 2215.01 1067.13 2199.49 1040.25"/><polygon class="cls-2" points="2257.68 1073.85 2226.65 1073.85 2211.13 1100.72 2226.65 1127.6 2257.68 1127.6 2273.2 1100.72 2257.68 1073.85"/><polygon class="cls-2" points="1966.74 1107.44 1935.7 1107.44 1920.19 1134.32 1935.7 1161.2 1966.74 1161.2 1982.25 1134.32 1966.74 1107.44"/><polygon class="cls-2" points="1908.55 1073.85 1877.51 1073.85 1862 1100.72 1877.51 1127.6 1908.55 1127.6 1924.06 1100.72 1908.55 1073.85"/><polygon class="cls-2" points="1850.36 1040.25 1819.32 1040.25 1803.81 1067.13 1819.32 1094.01 1850.36 1094.01 1865.88 1067.13 1850.36 1040.25"/><polygon class="cls-2" points="1850.36 1107.44 1819.32 1107.44 1803.81 1134.32 1819.32 1161.2 1850.36 1161.2 1865.88 1134.32 1850.36 1107.44"/><polygon class="cls-2" points="2315.87 1040.25 2284.84 1040.25 2269.32 1067.13 2284.84 1094.01 2315.87 1094.01 2331.39 1067.13 2315.87 1040.25"/><polygon class="cls-2" points="2024.93 1141.04 1993.89 1141.04 1978.37 1167.91 1993.89 1194.79 2024.93 1194.79 2040.44 1167.91 2024.93 1141.04"/><polygon class="cls-2" points="2083.11 1174.63 2052.08 1174.63 2036.56 1201.51 2052.08 1228.39 2083.11 1228.39 2098.63 1201.51 2083.11 1174.63"/><polygon class="cls-2" points="2141.3 1141.04 2110.27 1141.04 2094.75 1167.91 2110.27 1194.79 2141.3 1194.79 2156.82 1167.91 2141.3 1141.04"/><polygon class="cls-2" points="2199.49 1174.63 2168.46 1174.63 2152.94 1201.51 2168.46 1228.39 2199.49 1228.39 2215.01 1201.51 2199.49 1174.63"/><polygon class="cls-2" points="2257.68 1141.04 2226.65 1141.04 2211.13 1167.91 2226.65 1194.79 2257.68 1194.79 2273.2 1167.91 2257.68 1141.04"/><polygon class="cls-2" points="1966.74 1174.63 1935.7 1174.63 1920.19 1201.51 1935.7 1228.39 1966.74 1228.39 1982.25 1201.51 1966.74 1174.63"/><polygon class="cls-2" points="1908.55 1141.04 1877.51 1141.04 1862 1167.91 1877.51 1194.79 1908.55 1194.79 1924.06 1167.91 1908.55 1141.04"/><polygon class="cls-2" points="1850.36 1174.63 1819.32 1174.63 1803.81 1201.51 1819.32 1228.39 1850.36 1228.39 1865.88 1201.51 1850.36 1174.63"/><polygon class="cls-2" points="1850.36 1241.82 1819.32 1241.82 1803.81 1268.7 1819.32 1295.58 1850.36 1295.58 1865.88 1268.7 1850.36 1241.82"/><polygon class="cls-2" points="1908.55 1208.23 1877.51 1208.23 1862 1235.11 1877.51 1261.98 1908.55 1261.98 1924.06 1235.11 1908.55 1208.23"/><polygon class="cls-2" points="1908.55 1275.42 1877.51 1275.42 1862 1302.3 1877.51 1329.17 1908.55 1329.17 1924.06 1302.3 1908.55 1275.42"/><polygon class="cls-2" points="1966.74 1241.82 1935.7 1241.82 1920.19 1268.7 1935.7 1295.58 1966.74 1295.58 1982.25 1268.7 1966.74 1241.82"/><polygon class="cls-2" points="1966.74 1309.02 1935.7 1309.02 1920.19 1335.89 1935.7 1362.77 1966.74 1362.77 1982.25 1335.89 1966.74 1309.02"/><polygon class="cls-2" points="2024.93 1275.42 1993.89 1275.42 1978.37 1302.3 1993.89 1329.17 2024.93 1329.17 2040.44 1302.3 2024.93 1275.42"/><polygon class="cls-2" points="2024.93 1342.61 1993.89 1342.61 1978.37 1369.49 1993.89 1396.36 2024.93 1396.36 2040.44 1369.49 2024.93 1342.61"/><polygon class="cls-2" points="2083.11 1309.02 2052.08 1309.02 2036.56 1335.89 2052.08 1362.77 2083.11 1362.77 2098.63 1335.89 2083.11 1309.02"/><polygon class="cls-2" points="2024.93 1208.23 1993.89 1208.23 1978.37 1235.11 1993.89 1261.98 2024.93 1261.98 2040.44 1235.11 2024.93 1208.23"/><polygon class="cls-2" points="2083.11 1241.82 2052.08 1241.82 2036.56 1268.7 2052.08 1295.58 2083.11 1295.58 2098.63 1268.7 2083.11 1241.82"/><polygon class="cls-2" points="2141.3 1208.23 2110.27 1208.23 2094.75 1235.11 2110.27 1261.98 2141.3 1261.98 2156.82 1235.11 2141.3 1208.23"/><polygon class="cls-2" points="2141.3 1275.42 2110.27 1275.42 2094.75 1302.3 2110.27 1329.17 2141.3 1329.17 2156.82 1302.3 2141.3 1275.42"/><polygon class="cls-2" points="2199.49 1241.82 2168.46 1241.82 2152.94 1268.7 2168.46 1295.58 2199.49 1295.58 2215.01 1268.7 2199.49 1241.82"/><polygon class="cls-2" points="2083.11 1376.21 2052.08 1376.21 2036.56 1403.08 2052.08 1429.96 2083.11 1429.96 2098.63 1403.08 2083.11 1376.21"/><polygon class="cls-2" points="2141.3 1342.61 2110.27 1342.61 2094.75 1369.49 2110.27 1396.36 2141.3 1396.36 2156.82 1369.49 2141.3 1342.61"/><polygon class="cls-2" points="2199.49 1309.02 2168.46 1309.02 2152.94 1335.89 2168.46 1362.77 2199.49 1362.77 2215.01 1335.89 2199.49 1309.02"/><polygon class="cls-2" points="1966.74 1376.21 1935.7 1376.21 1920.19 1403.08 1935.7 1429.96 1966.74 1429.96 1982.25 1403.08 1966.74 1376.21"/><polygon class="cls-2" points="1908.55 1342.61 1877.51 1342.61 1862 1369.49 1877.51 1396.36 1908.55 1396.36 1924.06 1369.49 1908.55 1342.61"/><polygon class="cls-2" points="2315.87 1376.21 2284.84 1376.21 2269.32 1403.08 2284.84 1429.96 2315.87 1429.96 2331.39 1403.08 2315.87 1376.21"/><polygon class="cls-2" points="1908.55 1409.8 1877.51 1409.8 1862 1436.68 1877.51 1463.55 1908.55 1463.55 1924.06 1436.68 1908.55 1409.8"/><polygon class="cls-2" points="1966.74 1443.4 1935.7 1443.4 1920.19 1470.27 1935.7 1497.15 1966.74 1497.15 1982.25 1470.27 1966.74 1443.4"/><polygon class="cls-2" points="2024.93 1409.8 1993.89 1409.8 1978.37 1436.68 1993.89 1463.55 2024.93 1463.55 2040.44 1436.68 2024.93 1409.8"/><polygon class="cls-2" points="2024.93 1476.99 1993.89 1476.99 1978.37 1503.87 1993.89 1530.75 2024.93 1530.75 2040.44 1503.87 2024.93 1476.99"/><polygon class="cls-2" points="2083.11 1443.4 2052.08 1443.4 2036.56 1470.27 2052.08 1497.15 2083.11 1497.15 2098.63 1470.27 2083.11 1443.4"/><polygon class="cls-2" points="2141.3 1409.8 2110.27 1409.8 2094.75 1436.68 2110.27 1463.55 2141.3 1463.55 2156.82 1436.68 2141.3 1409.8"/><polygon class="cls-2" points="2083.11 1510.59 2052.08 1510.59 2036.56 1537.46 2052.08 1564.34 2083.11 1564.34 2098.63 1537.46 2083.11 1510.59"/><polygon class="cls-2" points="2141.3 1476.99 2110.27 1476.99 2094.75 1503.87 2110.27 1530.75 2141.3 1530.75 2156.82 1503.87 2141.3 1476.99"/><polygon class="cls-2" points="2257.68 1409.8 2226.65 1409.8 2211.13 1436.68 2226.65 1463.55 2257.68 1463.55 2273.2 1436.68 2257.68 1409.8"/><polygon class="cls-2" points="2257.68 1476.99 2226.65 1476.99 2211.13 1503.87 2226.65 1530.75 2257.68 1530.75 2273.2 1503.87 2257.68 1476.99"/><polygon class="cls-2" points="1966.74 1510.59 1935.7 1510.59 1920.19 1537.46 1935.7 1564.34 1966.74 1564.34 1982.25 1537.46 1966.74 1510.59"/><polygon class="cls-2" points="1908.55 1476.99 1877.51 1476.99 1862 1503.87 1877.51 1530.75 1908.55 1530.75 1924.06 1503.87 1908.55 1476.99"/><polygon class="cls-2" points="1733.98 771.49 1702.95 771.49 1687.43 798.37 1702.95 825.24 1733.98 825.24 1749.5 798.37 1733.98 771.49"/><polygon class="cls-2" points="1792.17 737.89 1761.14 737.89 1745.62 764.77 1761.14 791.65 1792.17 791.65 1807.69 764.77 1792.17 737.89"/><polygon class="cls-2" points="1792.17 805.08 1761.14 805.08 1745.62 831.96 1761.14 858.84 1792.17 858.84 1807.69 831.96 1792.17 805.08"/><polygon class="cls-2" points="1792.17 872.28 1761.14 872.28 1745.62 899.15 1761.14 926.03 1792.17 926.03 1807.69 899.15 1792.17 872.28"/><polygon class="cls-2" points="1733.98 838.68 1702.95 838.68 1687.43 865.56 1702.95 892.43 1733.98 892.43 1749.5 865.56 1733.98 838.68"/><polygon class="cls-2" points="1733.98 905.87 1702.95 905.87 1687.43 932.75 1702.95 959.62 1733.98 959.62 1749.5 932.75 1733.98 905.87"/><polygon class="cls-2" points="1733.98 973.06 1702.95 973.06 1687.43 999.94 1702.95 1026.81 1733.98 1026.81 1749.5 999.94 1733.98 973.06"/><polygon class="cls-2" points="1792.17 939.47 1761.14 939.47 1745.62 966.34 1761.14 993.22 1792.17 993.22 1807.69 966.34 1792.17 939.47"/><polygon class="cls-2" points="1792.17 1006.66 1761.14 1006.66 1745.62 1033.53 1761.14 1060.41 1792.17 1060.41 1807.69 1033.53 1792.17 1006.66"/><polygon class="cls-2" points="1792.17 1073.85 1761.14 1073.85 1745.62 1100.72 1761.14 1127.6 1792.17 1127.6 1807.69 1100.72 1792.17 1073.85"/><polygon class="cls-2" points="1733.98 1040.25 1702.95 1040.25 1687.43 1067.13 1702.95 1094.01 1733.98 1094.01 1749.5 1067.13 1733.98 1040.25"/><polygon class="cls-2" points="2490.44 737.89 2459.4 737.89 2443.89 764.77 2459.4 791.65 2490.44 791.65 2505.95 764.77 2490.44 737.89"/><polygon class="cls-2" points="2490.44 805.08 2459.4 805.08 2443.89 831.96 2459.4 858.84 2490.44 858.84 2505.95 831.96 2490.44 805.08"/><polygon class="cls-2" points="2664.97 771.49 2633.93 771.49 2618.42 798.37 2633.93 825.24 2664.97 825.24 2680.48 798.37 2664.97 771.49"/><polygon class="cls-2" points="2723.16 737.89 2692.12 737.89 2676.61 764.77 2692.12 791.65 2723.16 791.65 2738.67 764.77 2723.16 737.89"/><polygon class="cls-2" points="2723.16 805.08 2692.12 805.08 2676.61 831.96 2692.12 858.84 2723.16 858.84 2738.67 831.96 2723.16 805.08"/><polygon class="cls-2" points="2781.35 771.49 2750.31 771.49 2734.79 798.37 2750.31 825.24 2781.35 825.24 2796.86 798.37 2781.35 771.49"/><polygon class="cls-2" points="2781.35 838.68 2750.31 838.68 2734.79 865.56 2750.31 892.43 2781.35 892.43 2796.86 865.56 2781.35 838.68"/><polygon class="cls-2" points="2839.53 805.08 2808.5 805.08 2792.98 831.96 2808.5 858.84 2839.53 858.84 2855.05 831.96 2839.53 805.08"/><polygon class="cls-2" points="2839.53 872.28 2808.5 872.28 2792.98 899.15 2808.5 926.03 2839.53 926.03 2855.05 899.15 2839.53 872.28"/><polygon class="cls-2" points="2897.72 838.68 2866.69 838.68 2851.17 865.56 2866.69 892.43 2897.72 892.43 2913.24 865.56 2897.72 838.68"/><polygon class="cls-2" points="2839.53 737.89 2808.5 737.89 2792.98 764.77 2808.5 791.65 2839.53 791.65 2855.05 764.77 2839.53 737.89"/><polygon class="cls-2" points="2897.72 771.49 2866.69 771.49 2851.17 798.37 2866.69 825.24 2897.72 825.24 2913.24 798.37 2897.72 771.49"/><polygon class="cls-2" points="2955.91 737.89 2924.88 737.89 2909.36 764.77 2924.88 791.65 2955.91 791.65 2971.43 764.77 2955.91 737.89"/><polygon class="cls-2" points="3072.25 737.89 3041.21 737.9 3025.7 764.78 3041.23 791.65 3072.26 791.64 3087.77 764.76 3072.25 737.89"/><polygon class="cls-2" points="2955.91 805.08 2924.88 805.08 2909.36 831.96 2924.88 858.84 2955.91 858.84 2971.43 831.96 2955.91 805.08"/><polygon class="cls-2" points="3014.1 771.49 2983.07 771.49 2967.55 798.37 2983.07 825.24 3014.1 825.24 3029.62 798.37 3014.1 771.49"/><polygon class="cls-2" points="2897.72 905.87 2866.69 905.87 2851.17 932.75 2866.69 959.62 2897.72 959.62 2913.24 932.75 2897.72 905.87"/><polygon class="cls-2" points="2955.91 872.28 2924.88 872.28 2909.36 899.15 2924.88 926.03 2955.91 926.03 2971.43 899.15 2955.91 872.28"/><polygon class="cls-2" points="3014.1 905.87 2983.07 905.87 2967.55 932.75 2983.07 959.62 3014.1 959.62 3029.62 932.75 3014.1 905.87"/><polygon class="cls-2" points="3014.1 838.68 2983.07 838.68 2967.55 865.56 2983.07 892.43 3014.1 892.43 3029.62 865.56 3014.1 838.68"/><polygon class="cls-2" points="3072.26 805.08 3041.23 805.09 3025.72 831.97 3041.24 858.84 3072.27 858.83 3087.79 831.95 3072.26 805.08"/><polygon class="cls-2" points="2723.16 872.28 2692.12 872.28 2676.61 899.15 2692.12 926.03 2723.16 926.03 2738.67 899.15 2723.16 872.28"/><polygon class="cls-2" points="2664.97 838.68 2633.93 838.68 2618.42 865.56 2633.93 892.43 2664.97 892.43 2680.48 865.56 2664.97 838.68"/><polygon class="cls-2" points="2664.97 905.87 2633.93 905.87 2618.42 932.75 2633.93 959.62 2664.97 959.62 2680.48 932.75 2664.97 905.87"/><polygon class="cls-2" points="3130.48 771.49 3099.44 771.49 3083.93 798.37 3099.44 825.24 3130.48 825.24 3146 798.37 3130.48 771.49"/><polygon class="cls-2" points="2664.97 973.06 2633.93 973.06 2618.42 999.94 2633.93 1026.81 2664.97 1026.81 2680.48 999.94 2664.97 973.06"/><polygon class="cls-2" points="2897.72 1040.25 2866.69 1040.25 2851.17 1067.13 2866.69 1094.01 2897.72 1094.01 2913.24 1067.13 2897.72 1040.25"/><polygon class="cls-2" points="2897.72 973.06 2866.69 973.06 2851.17 999.94 2866.69 1026.81 2897.72 1026.81 2913.24 999.94 2897.72 973.06"/><polygon class="cls-2" points="2955.91 939.47 2924.88 939.47 2909.36 966.34 2924.88 993.22 2955.91 993.22 2971.43 966.34 2955.91 939.47"/><polygon class="cls-2" points="3188.67 939.47 3157.63 939.47 3142.12 966.34 3157.63 993.22 3188.67 993.22 3204.18 966.34 3188.67 939.47"/><polygon class="cls-2" points="3014.1 973.06 2983.07 973.06 2967.55 999.94 2983.07 1026.81 3014.1 1026.81 3029.62 999.94 3014.1 973.06"/><polygon class="cls-2" points="2897.72 1107.44 2866.69 1107.44 2851.17 1134.32 2866.69 1161.2 2897.72 1161.2 2913.24 1134.32 2897.72 1107.44"/><polygon class="cls-2" points="2955.91 1073.85 2924.88 1073.85 2909.36 1100.72 2924.88 1127.6 2955.91 1127.6 2971.43 1100.72 2955.91 1073.85"/><polygon class="cls-2" points="2723.16 1073.85 2692.12 1073.85 2676.61 1100.72 2692.12 1127.6 2723.16 1127.6 2738.67 1100.72 2723.16 1073.85"/><polygon class="cls-2" points="3130.48 1040.25 3099.44 1040.25 3083.93 1067.13 3099.44 1094.01 3130.48 1094.01 3146 1067.13 3130.48 1040.25"/><polygon class="cls-2" points="3130.48 1107.44 3099.44 1107.44 3083.93 1134.32 3099.44 1161.2 3130.48 1161.2 3146 1134.32 3130.48 1107.44"/><polygon class="cls-2" points="3246.86 1040.25 3215.82 1040.25 3200.31 1067.13 3215.82 1094.01 3246.86 1094.01 3262.37 1067.13 3246.86 1040.25"/><polygon class="cls-2" points="3246.86 973.06 3215.82 973.06 3200.31 999.94 3215.82 1026.81 3246.86 1026.81 3262.37 999.94 3246.86 973.06"/><polygon class="cls-2" points="2955.91 1141.04 2924.88 1141.04 2909.36 1167.91 2924.88 1194.79 2955.91 1194.79 2971.43 1167.91 2955.91 1141.04"/><polygon class="cls-2" points="3072.33 1141.04 3041.3 1141.04 3025.79 1167.92 3041.31 1194.79 3072.35 1194.79 3087.86 1167.91 3072.33 1141.04"/><polygon class="cls-2" points="3130.48 1174.63 3099.44 1174.63 3083.93 1201.51 3099.44 1228.39 3130.48 1228.39 3146 1201.51 3130.48 1174.63"/><polygon class="cls-2" points="3188.67 1141.04 3157.63 1141.04 3142.12 1167.91 3157.63 1194.79 3188.67 1194.79 3204.18 1167.91 3188.67 1141.04"/><polygon class="cls-2" points="3246.86 1174.63 3215.82 1174.63 3200.31 1201.51 3215.82 1228.39 3246.86 1228.39 3262.37 1201.51 3246.86 1174.63"/><polygon class="cls-2" points="3188.67 1208.23 3157.63 1208.23 3142.12 1235.11 3157.63 1261.98 3188.67 1261.98 3204.18 1235.11 3188.67 1208.23"/><polygon class="cls-2" points="3014.1 1241.82 2983.07 1241.82 2967.55 1268.7 2983.07 1295.58 3014.1 1295.58 3029.62 1268.7 3014.1 1241.82"/><polygon class="cls-2" points="3072.36 1275.42 3041.33 1275.42 3025.82 1302.3 3041.34 1329.18 3072.37 1329.17 3087.89 1302.29 3072.36 1275.42"/><polygon class="cls-2" points="3246.86 1376.21 3215.82 1376.21 3200.31 1403.08 3215.82 1429.96 3246.86 1429.96 3262.37 1403.08 3246.86 1376.21"/><polygon class="cls-2" points="3072.41 1476.99 3041.37 1477 3025.86 1503.88 3041.38 1530.75 3072.42 1530.74 3087.93 1503.86 3072.41 1476.99"/><polygon class="cls-2" points="3130.48 1443.4 3099.44 1443.4 3083.93 1470.27 3099.44 1497.15 3130.48 1497.15 3146 1470.27 3130.48 1443.4"/><polygon class="cls-2" points="3130.48 1510.59 3099.44 1510.59 3083.93 1537.46 3099.44 1564.34 3130.48 1564.34 3146 1537.46 3130.48 1510.59"/><polygon class="cls-2" points="3188.67 1476.99 3157.63 1476.99 3142.12 1503.87 3157.63 1530.75 3188.67 1530.75 3204.18 1503.87 3188.67 1476.99"/><polygon class="cls-2" points="3246.86 1443.4 3215.82 1443.4 3200.31 1470.27 3215.82 1497.15 3246.86 1497.15 3262.37 1470.27 3246.86 1443.4"/><polygon class="cls-2" points="3188.67 1409.8 3157.63 1409.8 3142.12 1436.68 3157.63 1463.55 3188.67 1463.55 3204.18 1436.68 3188.67 1409.8"/><polygon class="cls-2" points="3246.86 1510.59 3215.82 1510.59 3200.31 1537.46 3215.82 1564.34 3246.86 1564.34 3262.37 1537.46 3246.86 1510.59"/><polygon class="cls-2" points="2548.59 771.49 2517.56 771.49 2502.04 798.37 2517.56 825.24 2548.59 825.24 2564.11 798.37 2548.59 771.49"/><polygon class="cls-2" points="2606.78 737.89 2575.74 737.89 2560.23 764.77 2575.74 791.65 2606.78 791.65 2622.3 764.77 2606.78 737.89"/><polygon class="cls-2" points="2606.78 805.08 2575.74 805.08 2560.23 831.96 2575.74 858.84 2606.78 858.84 2622.3 831.96 2606.78 805.08"/><polygon class="cls-2" points="2606.78 872.28 2575.74 872.28 2560.23 899.15 2575.74 926.03 2606.78 926.03 2622.3 899.15 2606.78 872.28"/><polygon class="cls-2" points="2548.59 838.68 2517.56 838.68 2502.04 865.56 2517.56 892.43 2548.59 892.43 2564.11 865.56 2548.59 838.68"/><polygon class="cls-2" points="2606.78 939.47 2575.74 939.47 2560.23 966.34 2575.74 993.22 2606.78 993.22 2622.3 966.34 2606.78 939.47"/><polygon class="cls-2" points="3305.05 1342.61 3274.01 1342.61 3258.49 1369.49 3274.01 1396.36 3305.05 1396.36 3320.56 1369.49 3305.05 1342.61"/><polygon class="cls-2" points="3305.05 1476.99 3274.01 1476.99 3258.49 1503.87 3274.01 1530.75 3305.05 1530.75 3320.56 1503.87 3305.05 1476.99"/><polygon class="cls-2" points="3305.05 1409.8 3274.01 1409.8 3258.49 1436.68 3274.01 1463.55 3305.05 1463.55 3320.56 1436.68 3305.05 1409.8"/><polygon class="cls-2" points="3363.16 1174.63 3332.13 1174.63 3316.61 1201.51 3332.13 1228.39 3363.16 1228.39 3378.68 1201.51 3363.16 1174.63"/><polygon class="cls-2" points="3363.16 1309.02 3332.13 1309.02 3316.61 1335.89 3332.13 1362.77 3363.16 1362.77 3378.68 1335.89 3363.16 1309.02"/><polygon class="cls-2" points="3421.35 1208.23 3390.32 1208.23 3374.8 1235.11 3390.32 1261.98 3421.35 1261.98 3436.87 1235.11 3421.35 1208.23"/><polygon class="cls-2" points="3479.54 1241.82 3448.51 1241.82 3432.99 1268.7 3448.51 1295.58 3479.54 1295.58 3495.06 1268.7 3479.54 1241.82"/><polygon class="cls-2" points="3595.92 1241.82 3564.89 1241.82 3549.37 1268.7 3564.89 1295.58 3595.92 1295.58 3611.44 1268.7 3595.92 1241.82"/><polygon class="cls-2" points="3479.54 1376.21 3448.51 1376.21 3432.99 1403.08 3448.51 1429.96 3479.54 1429.96 3495.06 1403.08 3479.54 1376.21"/><polygon class="cls-2" points="3363.16 1376.21 3332.13 1376.21 3316.61 1403.08 3332.13 1429.96 3363.16 1429.96 3378.68 1403.08 3363.16 1376.21"/><polygon class="cls-2" points="3712.3 1309.02 3681.26 1309.02 3665.75 1335.89 3681.26 1362.77 3712.3 1362.77 3727.81 1335.89 3712.3 1309.02"/><polygon class="cls-2" points="3363.16 1443.4 3332.13 1443.4 3316.61 1470.27 3332.13 1497.15 3363.16 1497.15 3378.68 1470.27 3363.16 1443.4"/><polygon class="cls-2" points="3421.35 1409.8 3390.32 1409.8 3374.8 1436.68 3390.32 1463.55 3421.35 1463.55 3436.87 1436.68 3421.35 1409.8"/><polygon class="cls-2" points="3421.35 1476.99 3390.32 1476.99 3374.8 1503.87 3390.32 1530.75 3421.35 1530.75 3436.87 1503.87 3421.35 1476.99"/><polygon class="cls-2" points="3479.54 1443.4 3448.51 1443.4 3432.99 1470.27 3448.51 1497.15 3479.54 1497.15 3495.06 1470.27 3479.54 1443.4"/><polygon class="cls-2" points="3479.54 1510.59 3448.51 1510.59 3432.99 1537.46 3448.51 1564.34 3479.54 1564.34 3495.06 1537.46 3479.54 1510.59"/><polygon class="cls-2" points="3537.73 1476.99 3506.7 1476.99 3491.18 1503.87 3506.7 1530.75 3537.73 1530.75 3553.25 1503.87 3537.73 1476.99"/><polygon class="cls-2" points="3363.16 1510.59 3332.13 1510.59 3316.61 1537.46 3332.13 1564.34 3363.16 1564.34 3378.68 1537.46 3363.16 1510.59"/><polygon class="cls-2" points="3712.3 1443.4 3681.26 1443.4 3665.75 1470.27 3681.26 1497.15 3712.3 1497.15 3727.81 1470.27 3712.3 1443.4"/><polygon class="cls-2" points="3886.86 1409.8 3855.83 1409.8 3840.31 1436.68 3855.83 1463.55 3886.86 1463.55 3902.38 1436.68 3886.86 1409.8"/><polygon class="cls-2" points="861.21 1544.18 830.18 1544.18 814.66 1571.06 830.18 1597.94 861.21 1597.94 876.73 1571.06 861.21 1544.18"/><polygon class="cls-2" points="861.21 1611.37 830.18 1611.37 814.66 1638.25 830.18 1665.13 861.21 1665.13 876.73 1638.25 861.21 1611.37"/><polygon class="cls-2" points="861.21 1678.56 830.18 1678.56 814.66 1705.44 830.18 1732.32 861.21 1732.32 876.73 1705.44 861.21 1678.56"/><polygon class="cls-2" points="1093.93 1544.18 1062.9 1544.18 1047.38 1571.06 1062.9 1597.94 1093.93 1597.94 1109.45 1571.06 1093.93 1544.18"/><polygon class="cls-2" points="1035.74 1577.78 1004.71 1577.78 989.19 1604.66 1004.71 1631.53 1035.74 1631.53 1051.26 1604.66 1035.74 1577.78"/><polygon class="cls-2" points="1035.74 1644.97 1004.71 1644.97 989.19 1671.85 1004.71 1698.72 1035.74 1698.72 1051.26 1671.85 1035.74 1644.97"/><polygon class="cls-2" points="1093.93 1880.14 1062.9 1880.14 1047.38 1907.01 1062.9 1933.89 1093.93 1933.89 1109.45 1907.01 1093.93 1880.14"/><polygon class="cls-2" points="977.55 1544.18 946.52 1544.18 931 1571.06 946.52 1597.94 977.55 1597.94 993.07 1571.06 977.55 1544.18"/><polygon class="cls-2" points="919.36 1577.78 888.33 1577.78 872.81 1604.66 888.33 1631.53 919.36 1631.53 934.88 1604.66 919.36 1577.78"/><polygon class="cls-2" points="919.36 1644.97 888.33 1644.97 872.81 1671.85 888.33 1698.72 919.36 1698.72 934.88 1671.85 919.36 1644.97"/><polygon class="cls-2" points="977.55 1611.37 946.52 1611.37 931 1638.25 946.52 1665.13 977.55 1665.13 993.07 1638.25 977.55 1611.37"/><polygon class="cls-2" points="977.55 1678.56 946.52 1678.56 931 1705.44 946.52 1732.32 977.55 1732.32 993.07 1705.44 977.55 1678.56"/><polygon class="cls-2" points="977.55 1745.76 946.52 1745.76 931 1772.63 946.52 1799.51 977.55 1799.51 993.07 1772.63 977.55 1745.76"/><polygon class="cls-2" points="919.36 1712.16 888.33 1712.16 872.81 1739.04 888.33 1765.91 919.36 1765.91 934.88 1739.04 919.36 1712.16"/><polygon class="cls-2" points="919.36 1779.35 888.33 1779.35 872.81 1806.23 888.33 1833.1 919.36 1833.1 934.88 1806.23 919.36 1779.35"/><polygon class="cls-2" points="977.55 1812.95 946.52 1812.95 931 1839.82 946.52 1866.7 977.55 1866.7 993.07 1839.82 977.55 1812.95"/><polygon class="cls-2" points="977.55 1880.14 946.52 1880.14 931 1907.01 946.52 1933.89 977.55 1933.89 993.07 1907.01 977.55 1880.14"/><polygon class="cls-2" points="919.36 1846.54 888.33 1846.54 872.81 1873.42 888.33 1900.29 919.36 1900.29 934.88 1873.42 919.36 1846.54"/><polygon class="cls-2" points="2024.93 1544.18 1993.89 1544.18 1978.37 1571.06 1993.89 1597.94 2024.93 1597.94 2040.44 1571.06 2024.93 1544.18"/><polygon class="cls-2" points="2083.11 1577.78 2052.08 1577.78 2036.56 1604.66 2052.08 1631.53 2083.11 1631.53 2098.63 1604.66 2083.11 1577.78"/><polygon class="cls-2" points="1966.74 1577.78 1935.7 1577.78 1920.19 1604.66 1935.7 1631.53 1966.74 1631.53 1982.25 1604.66 1966.74 1577.78"/><polygon class="cls-2" points="1908.55 1544.18 1877.51 1544.18 1862 1571.06 1877.51 1597.94 1908.55 1597.94 1924.06 1571.06 1908.55 1544.18"/><polygon class="cls-2" points="2024.93 1611.37 1993.89 1611.37 1978.37 1638.25 1993.89 1665.13 2024.93 1665.13 2040.44 1638.25 2024.93 1611.37"/><polygon class="cls-2" points="3072.42 1544.18 3041.39 1544.19 3025.87 1571.07 3041.4 1597.94 3072.43 1597.93 3087.94 1571.05 3072.42 1544.18"/><polygon class="cls-2" points="3130.48 1577.78 3099.44 1577.78 3083.93 1604.66 3099.44 1631.53 3130.48 1631.53 3146 1604.66 3130.48 1577.78"/><polygon class="cls-2" points="3188.67 1544.18 3157.63 1544.18 3142.12 1571.06 3157.63 1597.94 3188.67 1597.94 3204.18 1571.06 3188.67 1544.18"/><polygon class="cls-2" points="3246.86 1577.78 3215.82 1577.78 3200.31 1604.66 3215.82 1631.53 3246.86 1631.53 3262.37 1604.66 3246.86 1577.78"/><polygon class="cls-2" points="3072.43 1611.37 3041.4 1611.38 3025.89 1638.26 3041.41 1665.13 3072.45 1665.12 3087.96 1638.24 3072.43 1611.37"/><polygon class="cls-2" points="3188.67 1611.37 3157.63 1611.37 3142.12 1638.25 3157.63 1665.13 3188.67 1665.13 3204.18 1638.25 3188.67 1611.37"/><polygon class="cls-2" points="3305.05 1544.18 3274.01 1544.18 3258.49 1571.06 3274.01 1597.94 3305.05 1597.94 3320.56 1571.06 3305.05 1544.18"/><polygon class="cls-2" points="3305.05 1611.37 3274.01 1611.37 3258.49 1638.25 3274.01 1665.13 3305.05 1665.13 3320.56 1638.25 3305.05 1611.37"/><polygon class="cls-2" points="3421.35 1544.18 3390.32 1544.18 3374.8 1571.06 3390.32 1597.94 3421.35 1597.94 3436.87 1571.06 3421.35 1544.18"/><polygon class="cls-2" points="3479.54 1577.78 3448.51 1577.78 3432.99 1604.66 3448.51 1631.53 3479.54 1631.53 3495.06 1604.66 3479.54 1577.78"/><polygon class="cls-2" points="3537.73 1544.18 3506.7 1544.18 3491.18 1571.06 3506.7 1597.94 3537.73 1597.94 3553.25 1571.06 3537.73 1544.18"/><polygon class="cls-2" points="3363.16 1577.78 3332.13 1577.78 3316.61 1604.66 3332.13 1631.53 3363.16 1631.53 3378.68 1604.66 3363.16 1577.78"/><polygon class="cls-2" points="3363.16 1644.97 3332.13 1644.97 3316.61 1671.85 3332.13 1698.72 3363.16 1698.72 3378.68 1671.85 3363.16 1644.97"/><polygon class="cls-2" points="3421.35 1678.56 3390.32 1678.56 3374.8 1705.44 3390.32 1732.32 3421.35 1732.32 3436.87 1705.44 3421.35 1678.56"/><polygon class="cls-2" points="3421.35 1611.37 3390.32 1611.37 3374.8 1638.25 3390.32 1665.13 3421.35 1665.13 3436.87 1638.25 3421.35 1611.37"/><polygon class="cls-2" points="3479.54 1644.97 3448.51 1644.97 3432.99 1671.85 3448.51 1698.72 3479.54 1698.72 3495.06 1671.85 3479.54 1644.97"/><polygon class="cls-2" points="3595.92 1779.35 3564.89 1779.35 3549.37 1806.23 3564.89 1833.1 3595.92 1833.1 3611.44 1806.23 3595.92 1779.35"/><polygon class="cls-2" points="3654.11 1745.76 3623.07 1745.76 3607.56 1772.63 3623.07 1799.51 3654.11 1799.51 3669.63 1772.63 3654.11 1745.76"/><polygon class="cls-2" points="3363.16 1779.35 3332.13 1779.35 3316.61 1806.23 3332.13 1833.1 3363.16 1833.1 3378.68 1806.23 3363.16 1779.35"/><polygon class="cls-2" points="3712.3 1644.97 3681.26 1644.97 3665.75 1671.85 3681.26 1698.72 3712.3 1698.72 3727.81 1671.85 3712.3 1644.97"/></svg>