{
    "asset": {
        "copyright": "2024 (c) Adobe Inc.",
        "generator": "Adobe Substance 3D Stager - 522bab3571c29d3cf2b1b071f74e2d9861da2e41",
        "version": "2.0"
    },
    "accessors": [
        {
            "bufferView": 0,
            "componentType": 5126,
            "count": 3234,
            "type": "VEC3",
            "max": [
                3.928015947341919,
                0.9781693816184998,
                2.354976177215576
            ],
            "min": [
                -4.7369184494018559,
                -1.055792212486267,
                -2.690857410430908
            ]
        },
        {
            "bufferView": 1,
            "componentType": 5126,
            "count": 3234,
            "type": "VEC3"
        },
        {
            "bufferView": 2,
            "componentType": 5126,
            "count": 3234,
            "type": "VEC4"
        },
        {
            "bufferView": 3,
            "componentType": 5126,
            "count": 3234,
            "type": "VEC2"
        },
        {
            "bufferView": 4,
            "componentType": 5125,
            "count": 16728,
            "type": "SCALAR",
            "max": [
                3233.0
            ],
            "min": [
                0.0
            ]
        }
    ],
    "bufferViews": [
        {
            "buffer": 0,
            "byteOffset": 0,
            "byteLength": 38808,
            "target": 34962
        },
        {
            "buffer": 0,
            "byteOffset": 38808,
            "byteLength": 38808,
            "target": 34962
        },
        {
            "buffer": 0,
            "byteOffset": 77616,
            "byteLength": 51744,
            "target": 34962
        },
        {
            "buffer": 0,
            "byteOffset": 129360,
            "byteLength": 25872,
            "target": 34962
        },
        {
            "buffer": 0,
            "byteOffset": 155232,
            "byteLength": 66912,
            "target": 34963
        }
    ],
    "buffers": [
        {
            "byteLength": 222144,
            "uri": "yeah_binary.bin"
        }
    ],
    "images": [
        {
            "name": "tmp_image_pie_fc92_638f_3450base_color_spec_gloss",
            "uri": "yeah_images/tmp_image_pie_fc92_638f_3450base_color_spec_gloss.jpg",
            "mimeType": "image/jpeg"
        },
        {
            "name": "sampler_sampler",
            "uri": "yeah_images/sampler_sampler.png",
            "mimeType": "image/png"
        }
    ],
    "materials": [
        {
            "pbrMetallicRoughness": {
                "baseColorTexture": {
                    "index": 0
                },
                "metallicRoughnessTexture": {
                    "index": 1
                }
            },
            "name": "Matériau 2",
            "doubleSided": true
        }
    ],
    "meshes": [
        {
            "name": "Yeah006-252E1",
            "primitives": [
                {
                    "attributes": {
                        "POSITION": 0,
                        "NORMAL": 1,
                        "TANGENT": 2,
                        "TEXCOORD_0": 3
                    },
                    "indices": 4,
                    "material": 0
                }
            ]
        }
    ],
    "nodes": [
        {
            "name": "working_cam_n3d"
        },
        {
            "children": [
                2
            ],
            "translation": [
                0.004044512286782265,
                0.026908570900559427,
                -0.027243584394454957
            ],
            "name": "yeah"
        },
        {
            "children": [
                3
            ],
            "scale": [
                0.009999999776482582,
                0.009999999776482582,
                0.009999999776482582
            ],
            "name": "RootNode%2E0"
        },
        {
            "translation": [
                0.0,
                0.0,
                2.685546875
            ],
            "rotation": [
                -0.7071067094802856,
                0.0,
                0.0,
                0.7071068286895752
            ],
            "scale": [
                1.0,
                0.9999998807907105,
                0.9999998807907105
            ],
            "mesh": 0,
            "name": "Yeah006%2E1"
        }
    ],
    "samplers": [
        {}
    ],
    "scenes": [
        {
            "nodes": [
                1
            ],
            "name": "scene"
        }
    ],
    "textures": [
        {
            "name": "tmp_image_pie_fc92_638f_3450base_color_spec_gloss",
            "sampler": 0,
            "source": 0
        },
        {
            "name": "sampler_sampler",
            "sampler": 0,
            "source": 1
        }
    ],
    "scene": 0
}