{
  "accessors": [
    {
      "bufferView": 0,
      "componentType": 5125,
      "count": 43740,
      "type": "SCALAR"
    },
    {
      "bufferView": 1,
      "componentType": 5126,
      "count": 8316,
      "max": [
        0.02668920794083718,
        0.06655369992772009,
        0.044007660054829104
      ],
      "min": [
        -0.036858262820913534,
        0.0030062498876914923,
        -0.044007660054829104
      ],
      "type": "VEC3"
    },
    {
      "bufferView": 2,
      "componentType": 5126,
      "count": 8316,
      "max": [
        0.999999900153378,
        0.9999999970109543,
        0.9997394757098119
      ],
      "min": [
        -1.0,
        -1.0,
        -0.9997394757098119
      ],
      "type": "VEC3"
    },
    {
      "bufferView": 3,
      "componentType": 5126,
      "count": 8316,
      "max": [
        0.8682811579662717,
        1.0
      ],
      "min": [
        0.0,
        0.0
      ],
      "type": "VEC2"
    },
    {
      "bufferView": 4,
      "componentType": 5125,
      "count": 43572,
      "type": "SCALAR"
    },
    {
      "bufferView": 5,
      "componentType": 5126,
      "count": 8288,
      "max": [
        0.026824938726803804,
        -0.0030061918642250163,
        0.04401272169585624
      ],
      "min": [
        -0.03672260896538537,
        -0.06655370929257631,
        -0.0440127216958562
      ],
      "type": "VEC3"
    },
    {
      "bufferView": 6,
      "componentType": 5126,
      "count": 8288,
      "max": [
        1.0000000000000016,
        0.9999999299121515,
        0.9999409430799487
      ],
      "min": [
        -0.9999999001165855,
        -1.0000000000000016,
        -0.9999409430799487
      ],
      "type": "VEC3"
    },
    {
      "bufferView": 7,
      "componentType": 5126,
      "count": 8288,
      "max": [
        0.8672577527576153,
        1.0
      ],
      "min": [
        0.0,
        0.0
      ],
      "type": "VEC2"
    },
    {
      "bufferView": 8,
      "componentType": 5125,
      "count": 43572,
      "type": "SCALAR"
    },
    {
      "bufferView": 9,
      "componentType": 5126,
      "count": 8288,
      "max": [
        0.16391335239664961,
        0.06655375146913478,
        0.044012741754109075
      ],
      "min": [
        0.10036581389040822,
        0.0030061612190883658,
        -0.04401273076740586
      ],
      "type": "VEC3"
    },
    {
      "bufferView": 10,
      "componentType": 5126,
      "count": 8288,
      "max": [
        0.9999999301182736,
        0.9999999003626799,
        0.9999409430799487
      ],
      "min": [
        -0.9999999999998499,
        -0.9999999999998499,
        -0.9999409430799487
      ],
      "type": "VEC3"
    },
    {
      "bufferView": 11,
      "componentType": 5126,
      "count": 8288,
      "max": [
        0.8672577527576153,
        1.0
      ],
      "min": [
        0.0,
        0.0
      ],
      "type": "VEC2"
    },
    {
      "bufferView": 12,
      "componentType": 5125,
      "count": 43344,
      "type": "SCALAR"
    },
    {
      "bufferView": 13,
      "componentType": 5126,
      "count": 8252,
      "max": [
        -0.041279747097976216,
        0.06683026243714352,
        0.048818389936355386
      ],
      "min": [
        -0.1639133523966494,
        0.003006249885081136,
        -0.04881838993635533
      ],
      "type": "VEC3"
    },
    {
      "bufferView": 14,
      "componentType": 5126,
      "count": 8252,
      "max": [
        1.0,
        0.9999999001134126,
        0.9999952470414885
      ],
      "min": [
        -0.9999999989802221,
        -1.0,
        -0.9999952470414885
      ],
      "type": "VEC3"
    },
    {
      "bufferView": 15,
      "componentType": 5126,
      "count": 8252,
      "max": [
        0.5257472480526626,
        1.0
      ],
      "min": [
        0.0,
        0.0
      ],
      "type": "VEC2"
    },
    {
      "bufferView": 16,
      "componentType": 5125,
      "count": 43464,
      "type": "SCALAR"
    },
    {
      "bufferView": 17,
      "componentType": 5126,
      "count": 8272,
      "max": [
        0.1542120148407775,
        -0.0030062499318324054,
        0.04881949609043165
      ],
      "min": [
        0.03157825887397614,
        -0.06683026243714307,
        -0.04881949609043164
      ],
      "type": "VEC3"
    },
    {
      "bufferView": 18,
      "componentType": 5126,
      "count": 8272,
      "max": [
        0.9999999900455614,
        1.0,
        0.9999869115458055
      ],
      "min": [
        -1.0,
        -0.9999999896058165,
        -0.9999869115458055
      ],
      "type": "VEC3"
    },
    {
      "bufferView": 19,
      "componentType": 5126,
      "count": 8272,
      "max": [
        0.525747382445314,
        1.0
      ],
      "min": [
        0.0,
        0.0
      ],
      "type": "VEC2"
    },
    {
      "bufferView": 20,
      "componentType": 5125,
      "count": 42864,
      "type": "SCALAR"
    },
    {
      "bufferView": 21,
      "componentType": 5126,
      "count": 8060,
      "max": [
        -0.0316045519815884,
        -0.0030062499320828717,
        0.049715303137127034
      ],
      "min": [
        -0.1123525968543222,
        -0.06655369995188187,
        -0.04971530313712702
      ],
      "type": "VEC3"
    },
    {
      "bufferView": 22,
      "componentType": 5126,
      "count": 8060,
      "max": [
        1.0,
        1.0,
        0.9998795201377734
      ],
      "min": [
        -1.0,
        -1.0,
        -0.9998795201377734
      ],
      "type": "VEC3"
    },
    {
      "bufferView": 23,
      "componentType": 5126,
      "count": 8060,
      "max": [
        0.998215924075412,
        1.0
      ],
      "min": [
        0.0,
        0.0
      ],
      "type": "VEC2"
    },
    {
      "bufferView": 24,
      "componentType": 5125,
      "count": 46428,
      "type": "SCALAR"
    },
    {
      "bufferView": 25,
      "componentType": 5126,
      "count": 9048,
      "max": [
        0.09503860887263715,
        0.0664351545586992,
        0.04096485109290636
      ],
      "min": [
        0.03155404015691099,
        0.0030062498958272066,
        -0.040964851092906304
      ],
      "type": "VEC3"
    },
    {
      "bufferView": 26,
      "componentType": 5126,
      "count": 9048,
      "max": [
        0.9999999438619495,
        0.9999999830054632,
        0.9999846105603263
      ],
      "min": [
        -0.9999999998665783,
        -0.9999999359067151,
        -0.9999846105603263
      ],
      "type": "VEC3"
    },
    {
      "bufferView": 27,
      "componentType": 5126,
      "count": 9048,
      "max": [
        1.0,
        0.8322878694739801
      ],
      "min": [
        0.0,
        0.0
      ],
      "type": "VEC2"
    }
  ],
  "asset": {
    "generator": "Adobe Illustrator",
    "version": "2.0"
  },
  "bufferViews": [
    {
      "buffer": 0,
      "byteLength": 174960,
      "target": 34963
    },
    {
      "buffer": 0,
      "byteLength": 99792,
      "byteOffset": 174960,
      "target": 34962
    },
    {
      "buffer": 0,
      "byteLength": 99792,
      "byteOffset": 274752,
      "target": 34962
    },
    {
      "buffer": 0,
      "byteLength": 66528,
      "byteOffset": 374544,
      "target": 34962
    },
    {
      "buffer": 0,
      "byteLength": 174288,
      "byteOffset": 441072,
      "target": 34963
    },
    {
      "buffer": 0,
      "byteLength": 99456,
      "byteOffset": 615360,
      "target": 34962
    },
    {
      "buffer": 0,
      "byteLength": 99456,
      "byteOffset": 714816,
      "target": 34962
    },
    {
      "buffer": 0,
      "byteLength": 66304,
      "byteOffset": 814272,
      "target": 34962
    },
    {
      "buffer": 0,
      "byteLength": 174288,
      "byteOffset": 880576,
      "target": 34963
    },
    {
      "buffer": 0,
      "byteLength": 99456,
      "byteOffset": 1054864,
      "target": 34962
    },
    {
      "buffer": 0,
      "byteLength": 99456,
      "byteOffset": 1154320,
      "target": 34962
    },
    {
      "buffer": 0,
      "byteLength": 66304,
      "byteOffset": 1253776,
      "target": 34962
    },
    {
      "buffer": 0,
      "byteLength": 173376,
      "byteOffset": 1320080,
      "target": 34963
    },
    {
      "buffer": 0,
      "byteLength": 99024,
      "byteOffset": 1493456,
      "target": 34962
    },
    {
      "buffer": 0,
      "byteLength": 99024,
      "byteOffset": 1592480,
      "target": 34962
    },
    {
      "buffer": 0,
      "byteLength": 66016,
      "byteOffset": 1691504,
      "target": 34962
    },
    {
      "buffer": 0,
      "byteLength": 173856,
      "byteOffset": 1757520,
      "target": 34963
    },
    {
      "buffer": 0,
      "byteLength": 99264,
      "byteOffset": 1931376,
      "target": 34962
    },
    {
      "buffer": 0,
      "byteLength": 99264,
      "byteOffset": 2030640,
      "target": 34962
    },
    {
      "buffer": 0,
      "byteLength": 66176,
      "byteOffset": 2129904,
      "target": 34962
    },
    {
      "buffer": 0,
      "byteLength": 171456,
      "byteOffset": 2196080,
      "target": 34963
    },
    {
      "buffer": 0,
      "byteLength": 96720,
      "byteOffset": 2367536,
      "target": 34962
    },
    {
      "buffer": 0,
      "byteLength": 96720,
      "byteOffset": 2464256,
      "target": 34962
    },
    {
      "buffer": 0,
      "byteLength": 64480,
      "byteOffset": 2560976,
      "target": 34962
    },
    {
      "buffer": 0,
      "byteLength": 185712,
      "byteOffset": 2625456,
      "target": 34963
    },
    {
      "buffer": 0,
      "byteLength": 108576,
      "byteOffset": 2811168,
      "target": 34962
    },
    {
      "buffer": 0,
      "byteLength": 108576,
      "byteOffset": 2919744,
      "target": 34962
    },
    {
      "buffer": 0,
      "byteLength": 72384,
      "byteOffset": 3028320,
      "target": 34962
    }
  ],
  "buffers": [
    {
      "byteLength": 3100704,
      "uri": "data:application/octet-stream;base64,"
    }
  ],
  "materials": [
    {
      "doubleSided": true,
      "pbrMetallicRoughness": {
        "baseColorFactor": [
          0.9999999403953552,
          0.0,
          0.90234375,
          1.0
        ],
        "metallicFactor": 0.0,
        "roughnessFactor": 0.4000000059604645
      }
    },
    {
      "doubleSided": true,
      "pbrMetallicRoughness": {
        "baseColorFactor": [
          0.9999999403953552,
          0.0,
          0.90234375,
          1.0
        ],
        "metallicFactor": 0.0,
        "roughnessFactor": 0.4000000059604645
      }
    },
    {
      "doubleSided": true,
      "pbrMetallicRoughness": {
        "baseColorFactor": [
          0.9999999403953552,
          0.0,
          0.90234375,
          1.0
        ],
        "metallicFactor": 0.0,
        "roughnessFactor": 0.4000000059604645
      }
    },
    {
      "doubleSided": true,
      "pbrMetallicRoughness": {
        "baseColorFactor": [
          0.9999999403953552,
          0.0,
          0.90234375,
          1.0
        ],
        "metallicFactor": 0.0,
        "roughnessFactor": 0.4000000059604645
      }
    },
    {
      "doubleSided": true,
      "pbrMetallicRoughness": {
        "baseColorFactor": [
          0.9999999403953552,
          0.0,
          0.90234375,
          1.0
        ],
        "metallicFactor": 0.0,
        "roughnessFactor": 0.4000000059604645
      }
    },
    {
      "doubleSided": true,
      "pbrMetallicRoughness": {
        "baseColorFactor": [
          0.9999999403953552,
          0.0,
          0.90234375,
          1.0
        ],
        "metallicFactor": 0.0,
        "roughnessFactor": 0.4000000059604645
      }
    },
    {
      "doubleSided": true,
      "pbrMetallicRoughness": {
        "baseColorFactor": [
          0.9999999403953552,
          0.0,
          0.90234375,
          1.0
        ],
        "metallicFactor": 0.0,
        "roughnessFactor": 0.4000000059604645
      }
    }
  ],
  "meshes": [
    {
      "primitives": [
        {
          "attributes": {
            "NORMAL": 2,
            "POSITION": 1,
            "TEXCOORD_0": 3
          },
          "indices": 0,
          "material": 0,
          "mode": 4
        }
      ]
    },
    {
      "primitives": [
        {
          "attributes": {
            "NORMAL": 6,
            "POSITION": 5,
            "TEXCOORD_0": 7
          },
          "indices": 4,
          "material": 1,
          "mode": 4
        }
      ]
    },
    {
      "primitives": [
        {
          "attributes": {
            "NORMAL": 10,
            "POSITION": 9,
            "TEXCOORD_0": 11
          },
          "indices": 8,
          "material": 2,
          "mode": 4
        }
      ]
    },
    {
      "primitives": [
        {
          "attributes": {
            "NORMAL": 14,
            "POSITION": 13,
            "TEXCOORD_0": 15
          },
          "indices": 12,
          "material": 3,
          "mode": 4
        }
      ]
    },
    {
      "primitives": [
        {
          "attributes": {
            "NORMAL": 18,
            "POSITION": 17,
            "TEXCOORD_0": 19
          },
          "indices": 16,
          "material": 4,
          "mode": 4
        }
      ]
    },
    {
      "primitives": [
        {
          "attributes": {
            "NORMAL": 22,
            "POSITION": 21,
            "TEXCOORD_0": 23
          },
          "indices": 20,
          "material": 5,
          "mode": 4
        }
      ]
    },
    {
      "primitives": [
        {
          "attributes": {
            "NORMAL": 26,
            "POSITION": 25,
            "TEXCOORD_0": 27
          },
          "indices": 24,
          "material": 6,
          "mode": 4
        }
      ]
    }
  ],
  "nodes": [
    {
      "mesh": 0
    },
    {
      "mesh": 1
    },
    {
      "mesh": 2
    },
    {
      "mesh": 3
    },
    {
      "mesh": 4
    },
    {
      "mesh": 5
    },
    {
      "mesh": 6
    }
  ],
  "scenes": [
    {
      "nodes": [
        0,
        1,
        2,
        3,
        4,
        5,
        6
      ]
    }
  ]
}
